<svg id="Layer_2" data-name="Layer 2" xmlns="http://www.w3.org/2000/svg" width="4.47in" height="1.3in" viewBox="0 0 321.93 93.45">
  <g>
    <g>
      <g>
        <path d="M147.92,92.56a23.79,23.79,0,0,1-8.28-1.4,17.91,17.91,0,0,1-6.36-4,18.5,18.5,0,0,1-4.2-6.45,24.23,24.23,0,0,1-1.56-9,23.94,23.94,0,0,1,1.59-9.08,17.63,17.63,0,0,1,10.63-10.32,25.14,25.14,0,0,1,16.37,0,18.44,18.44,0,0,1,6.42,3.92,18.09,18.09,0,0,1,4.28,6.4,24,24,0,0,1,1.6,9.08,24.81,24.81,0,0,1-1.57,9.15,17.89,17.89,0,0,1-4.21,6.42,18.21,18.21,0,0,1-6.4,3.91A24.43,24.43,0,0,1,147.92,92.56Zm.08-37a11.91,11.91,0,0,0-9.53,4.3c-2.29,2.71-3.45,6.7-3.45,11.84s1.14,9.13,3.39,11.85a12.63,12.63,0,0,0,19.11,0c2.24-2.73,3.38-6.71,3.38-11.85s-1.12-9-3.33-11.76A11.73,11.73,0,0,0,148,55.57Z" transform="translate(-18 -22.3)" style="fill: #fff"/>
        <path d="M183.23,92.49a32.93,32.93,0,0,1-5.27-.4A13.61,13.61,0,0,1,174.22,91a5.39,5.39,0,0,1-1.93-1.48,2.45,2.45,0,0,1-.48-1.57,3,3,0,0,1,.3-1.47,34.77,34.77,0,0,0,3.32,1.29,23,23,0,0,0,7.28,1.07,10.11,10.11,0,0,0,4.88-1,4.86,4.86,0,0,0,2.72-4.3,4.7,4.7,0,0,0-2.17-4,10.43,10.43,0,0,0-4-1.4L182,77.66c-3.77-.74-6.53-1.85-8.23-3.3-1.43-1.23-2.13-3-2.13-5.52a7.3,7.3,0,0,1,3.25-6.25,14.11,14.11,0,0,1,4.25-1.88,22.33,22.33,0,0,1,5.83-.71,27.31,27.31,0,0,1,4.65.37,13.67,13.67,0,0,1,3.44,1,4.65,4.65,0,0,1,1.75,1.29,1.84,1.84,0,0,1,.4,1.25,3.64,3.64,0,0,1-.23,1.42c-.84-.29-1.78-.55-2.78-.79s-2-.44-3.06-.6a20.39,20.39,0,0,0-3.06-.25,12.8,12.8,0,0,0-4.87.77,4.66,4.66,0,0,0-3.09,4.39,4.42,4.42,0,0,0,2,3.69,10.49,10.49,0,0,0,3.84,1.41l2.25.51c5.21,1.19,7.61,2.69,8.71,3.74a6.81,6.81,0,0,1,2.09,5.24,7.49,7.49,0,0,1-3.05,6.47C191.6,91.62,188,92.49,183.23,92.49Z" transform="translate(-18 -22.3)" style="fill: #fff"/>
        <path d="M206.4,91.83a14.61,14.61,0,0,1-2.43-.18,2.23,2.23,0,0,1-.93-.35,1.38,1.38,0,0,1-.43-.61,5,5,0,0,1-.26-1.88V61.25a17.61,17.61,0,0,1,2.72-.22,14.4,14.4,0,0,1,2.42.18,2.23,2.23,0,0,1,.94.35,1.46,1.46,0,0,1,.44.62,5.14,5.14,0,0,1,.25,1.87V91.61A17.61,17.61,0,0,1,206.4,91.83Zm-.67-39.72a3.67,3.67,0,0,1-2.91-1.06,3.58,3.58,0,0,1-1.06-2.7,3.65,3.65,0,0,1,1.06-2.7,4.57,4.57,0,0,1,5.83,0,4,4,0,0,1,0,5.4A3.7,3.7,0,0,1,205.73,52.11Z" transform="translate(-18 -22.3)" style="fill: #fff"/>
      </g>
      <g>
        <path d="M220,90.69a6,6,0,0,1-1.66-4.46V47.39c.54-.09,1.32-.22,2.32-.36a20.28,20.28,0,0,1,3-.23,8.09,8.09,0,0,1,4.79,1.11q1.47,1.11,1.47,4.35V83H247.6a10.68,10.68,0,0,1,.84,1.91,7.93,7.93,0,0,1,.41,2.58,5.41,5.41,0,0,1-1.07,3.65,3.67,3.67,0,0,1-2.91,1.21H224.46A6,6,0,0,1,220,90.69Z" transform="translate(-18 -22.3)" style="fill: #fff"/>
        <path d="M259.24,92.71q-3.47,0-4.83-1.18c-.91-.78-1.36-2.21-1.36-4.27V47.39c.54-.09,1.31-.22,2.32-.36a20.8,20.8,0,0,1,3.06-.23c2.21,0,3.79.37,4.75,1.11s1.44,2.19,1.44,4.35V92.12a16.27,16.27,0,0,1-2.29.41A25.43,25.43,0,0,1,259.24,92.71Z" transform="translate(-18 -22.3)" style="fill: #fff"/>
        <path d="M302.64,47.54a9.16,9.16,0,0,1,1.18,4.5,5.26,5.26,0,0,1-1.07,3.61,3.83,3.83,0,0,1-3,1.18H283.41v9.65h16.73A14.83,14.83,0,0,1,301,68.4a7.41,7.41,0,0,1,.41,2.57,5,5,0,0,1-1.11,3.58,3.9,3.9,0,0,1-2.94,1.14H283.56V92.12a16.55,16.55,0,0,1-2.29.41,25.43,25.43,0,0,1-3.09.18q-3.46,0-4.83-1.18c-.91-.78-1.36-2.21-1.36-4.27V53.66a5.72,5.72,0,0,1,6.11-6.12Z" transform="translate(-18 -22.3)" style="fill: #fff"/>
        <path d="M309.61,90.69A6,6,0,0,1,308,86.23V53.66a5.72,5.72,0,0,1,6.11-6.12h24.4a10.07,10.07,0,0,1,.81,1.84,8.13,8.13,0,0,1,.36,2.51,5.26,5.26,0,0,1-1.06,3.61,3.83,3.83,0,0,1-3,1.18H319.22v8.25h17.1a10.07,10.07,0,0,1,.81,1.84,8.13,8.13,0,0,1,.37,2.51,5.25,5.25,0,0,1-1,3.57,3.75,3.75,0,0,1-3,1.15h-14.3v9.21h19.53a9.08,9.08,0,0,1,1.18,4.49,5,5,0,0,1-1.07,3.54,3.84,3.84,0,0,1-2.91,1.1H314.06A6,6,0,0,1,309.61,90.69Z" transform="translate(-18 -22.3)" style="fill: #fff"/>
      </g>
    </g>
    <g>
      <path d="M42.59,60.77c-.42-2,.76-2.83,2.59-2A8,8,0,0,1,50,65.49c.4,4.17-.87,8.4,0,12.6a2.72,2.72,0,0,0,3.24,2.13,9.53,9.53,0,0,0,6-3.68A107.69,107.69,0,0,0,66.72,66c2.8-4.5,3.78-9.82,4.69-15.12.34-2,.58-4,1.07-5.91A4.32,4.32,0,0,1,74,42.76c1.18-.87,2.25-.41,2.52,1.15,1.33,9.08.31,19.93-3.16,28a51.63,51.63,0,0,1-5,8.36l-.58.82c5.72-4.9,11-13,13.52-26.43V22.3H59.37v0A12.66,12.66,0,0,0,47.44,35v1.76h0v18H18V76.6h0A12.65,12.65,0,0,0,30.65,88.52h7.54a127.87,127.87,0,0,1,3-14.42C42.62,69.81,43.62,65.52,42.59,60.77Zm23.7-15.11c.55-.95,1.49-.68,2,.38a12.92,12.92,0,0,1,.36,10.83c-.46,1.26-.84,2.55-1.35,4.08-.82-4.32-1.85-7.93-2-12.1A6.64,6.64,0,0,1,66.29,45.66Zm-2,8.6c.62,1.62,1.76,5.94,2,6.41.76,1.85-.34,3.1-1,4.45a12.83,12.83,0,0,1-2.05,2.62c-.64-3.85-1.32-7.69-1.86-11.54C61.11,54.52,63.1,51.35,64.33,54.26ZM58.5,61.54C59.92,59,61.92,65.36,62.39,67a3.19,3.19,0,0,1-.57,3.15c-.6.82-1.29,1.6-2.06,2.6C59,69.4,57.07,64.11,58.5,61.54Z" transform="translate(-18 -22.3)" style="fill: #fff"/>
      <path d="M111.43,66.9A12.66,12.66,0,0,0,98.79,54.69H81.27c-2.47,13.42-7.8,21.54-13.52,26.44-1.56,2.19-3,4.29-4.2,6.36-4.92,8.36-6.61,16.23-1.47,28,.09.15.12.31.23.31h6.76a12.66,12.66,0,0,0,12.2-12.65V93h0V88.52h30.17V66.9Z" transform="translate(-18 -22.3)" style="fill: #fff"/>
    </g>
  </g>
</svg>
