<svg id="logo_tagline" data-name="Layer 3" xmlns="http://www.w3.org/2000/svg" width="2in" height="100%" viewBox="0 0 360 360" >
  <defs/>
  <style>
    .st0{fill:#00adbc}
	.st1{fill:#ffa500}
  </style>
  <path d="M74.75 282.6c-3.65 0-7.06-.58-10.14-1.72-3.01-1.11-5.62-2.75-7.78-4.85-2.16-2.11-3.89-4.76-5.14-7.9-1.27-3.17-1.91-6.89-1.91-11.05 0-4.21.65-7.95 1.95-11.11 1.28-3.13 3.03-5.77 5.21-7.84 2.19-2.09 4.81-3.7 7.8-4.79 3.05-1.12 6.42-1.68 10.02-1.68 3.59 0 6.96.57 10.02 1.68 2.99 1.09 5.63 2.71 7.86 4.8 2.2 2.07 3.97 4.71 5.24 7.83 1.29 3.17 1.95 6.9 1.95 11.11 0 4.22-.64 7.99-1.92 11.19-1.25 3.14-2.98 5.79-5.15 7.86-2.19 2.08-4.82 3.69-7.83 4.78-3.1 1.12-6.52 1.69-10.18 1.69zm.09-45.27c-4.79 0-8.72 1.77-11.66 5.26-2.8 3.32-4.21 8.19-4.21 14.49 0 6.28 1.39 11.16 4.14 14.5 2.91 3.55 6.83 5.34 11.65 5.34 4.87 0 8.82-1.8 11.74-5.34 2.75-3.34 4.14-8.22 4.14-14.5 0-6.21-1.37-11.05-4.08-14.39-2.9-3.56-6.84-5.36-11.72-5.36zM117.95 282.51c-2.32 0-4.5-.17-6.45-.49-1.82-.3-3.36-.76-4.57-1.36-1.03-.51-1.83-1.12-2.36-1.81-.4-.53-.59-1.14-.59-1.92 0-.76.12-1.36.37-1.79 1.26.57 2.62 1.09 4.06 1.57 2.6.87 5.6 1.31 8.91 1.31 2.48 0 4.43-.41 5.97-1.24 2.11-1.15 3.33-3.07 3.33-5.26 0-2.03-.94-3.77-2.65-4.91-1.16-.77-2.73-1.31-4.94-1.71l-2.63-.53c-4.62-.9-8-2.26-10.07-4.04-1.76-1.51-2.61-3.71-2.61-6.75 0-1.65.34-3.09 1.03-4.38.7-1.31 1.66-2.38 2.95-3.27 1.4-.97 3.15-1.74 5.19-2.3 2.12-.57 4.52-.87 7.14-.87 2.01 0 3.93.15 5.68.45 1.64.28 3.06.69 4.21 1.22.93.43 1.65.96 2.14 1.57.34.42.49.9.49 1.54 0 .69-.09 1.28-.28 1.74-1.04-.35-2.18-.68-3.41-.97-1.22-.29-2.48-.53-3.75-.73-1.36-.21-2.61-.31-3.74-.31-2.47 0-4.42.31-5.95.95-2.41 1-3.79 2.96-3.79 5.37 0 1.83.86 3.43 2.41 4.51 1.01.71 2.47 1.25 4.7 1.73l2.76.62c6.37 1.46 9.31 3.29 10.66 4.57 1.72 1.63 2.56 3.73 2.56 6.42 0 3.48-1.19 5.99-3.74 7.92-2.79 2.08-7.17 3.15-13.03 3.15zM146.3 281.69c-1.11 0-2.11-.07-2.97-.22-.49-.08-.87-.23-1.14-.43-.14-.11-.34-.29-.53-.75-.12-.29-.32-.95-.32-2.29v-33.72c1.09-.18 2.21-.27 3.33-.27 1.11 0 2.11.07 2.97.22.49.08.88.23 1.14.43.08.06.32.24.54.76.11.27.31.94.31 2.29v33.72c-1.09.17-2.21.26-3.33.26zm-.81-48.6c-2.07 0-3.03-.73-3.57-1.29-.88-.9-1.29-1.95-1.29-3.3 0-1.36.41-2.41 1.29-3.31.54-.55 1.5-1.29 3.57-1.29s3.03.73 3.57 1.29c.88.9 1.29 1.95 1.29 3.3 0 1.36-.41 2.41-1.29 3.3-.54.57-1.5 1.3-3.57 1.3z" class="st0"/>
  <g>
    <path d="M162.94 280.3c-1.35-1.35-2.03-3.17-2.03-5.46v-47.52c.66-.12 1.61-.27 2.84-.45 1.23-.18 2.45-.27 3.65-.27 2.7 0 4.66.45 5.86 1.35 1.2.9 1.8 2.68 1.8 5.32v37.6h21.64c.36.6.7 1.38 1.04 2.34.33.96.5 2.01.5 3.16 0 1.98-.44 3.47-1.31 4.46-.87.99-2.06 1.49-3.56 1.49H168.4c-2.29.01-4.11-.67-5.46-2.02zM210.96 282.78c-2.83 0-4.8-.48-5.91-1.44-1.11-.96-1.67-2.71-1.67-5.23v-48.78c.66-.12 1.61-.27 2.84-.45 1.23-.18 2.48-.27 3.74-.27 2.71 0 4.64.45 5.82 1.35 1.17.9 1.76 2.68 1.76 5.32v48.78c-.66.18-1.59.35-2.8.5-1.2.14-2.46.22-3.78.22zM264.07 227.5c.36.6.69 1.38.99 2.34.3.96.45 2.01.45 3.16 0 1.98-.44 3.46-1.31 4.42-.87.96-2.09 1.44-3.65 1.44h-20.02v11.81H261c.36.66.71 1.44 1.04 2.34.33.9.5 1.95.5 3.16 0 1.98-.45 3.44-1.35 4.37-.9.93-2.1 1.4-3.61 1.4h-16.86v20.11c-.66.18-1.59.35-2.8.5-1.2.15-2.47.23-3.79.23-2.83 0-4.8-.48-5.91-1.44-1.11-.96-1.67-2.71-1.67-5.23v-41.12c0-2.28.68-4.1 2.03-5.46 1.35-1.35 3.17-2.03 5.46-2.03h30.03zM272.59 280.3c-1.35-1.35-2.03-3.17-2.03-5.46v-39.86c0-2.28.68-4.1 2.03-5.46 1.35-1.35 3.17-2.03 5.46-2.03h29.85c.36.6.69 1.35.99 2.25.3.9.45 1.93.45 3.07 0 1.98-.44 3.46-1.31 4.42-.87.96-2.09 1.44-3.65 1.44h-20.02v10.1h20.92c.36.6.69 1.35.99 2.25.3.9.45 1.93.45 3.07 0 1.98-.42 3.44-1.26 4.37-.84.93-2.04 1.4-3.61 1.4h-17.49v11.27h23.9c.36.6.69 1.38.99 2.35.3.96.45 2.01.45 3.16 0 1.98-.44 3.43-1.31 4.33-.87.9-2.06 1.35-3.56 1.35h-26.78c-2.29.01-4.11-.67-5.46-2.02z" class="st1"/>
  </g>
  <g>
    <path d="M145.95 100.72c-.8-3.7 1.43-5.36 4.89-3.84 5.48 2.41 8.57 7.16 9.1 12.76.77 7.88-1.64 15.87-.03 23.8.66 2.96 3.23 4.48 6.12 4.03 4.72-.74 8.45-3.47 11.25-6.96 5.08-6.35 9.94-12.95 14.26-19.89 5.28-8.5 7.14-18.55 8.86-28.56.64-3.73 1.09-7.53 2.02-11.17.41-1.6 1.52-3.24 2.81-4.19 2.23-1.65 4.25-.78 4.77 2.16 2.51 17.16.57 37.66-5.98 52.98-2.45 5.63-5.99 10.75-9.44 15.8-.37.52-.74 1.03-1.1 1.54 10.81-9.26 20.89-24.58 25.55-49.93V28.06h-41.39v.04c-12.56.72-22.52 11.13-22.52 23.87v37.28H99.49v41.39h.04c.72 12.56 11.13 22.52 23.87 22.52h14.23c1.98-11.87 4.21-22.45 5.75-27.24 2.62-8.13 4.52-16.23 2.57-25.2zm44.76-28.54c1.05-1.8 2.83-1.29 3.84.71 3.53 6.97 3.16 13.75.69 20.46-.87 2.37-1.6 4.81-2.56 7.71-1.54-8.17-3.49-14.99-3.79-22.87.01-2.07.81-4.26 1.82-6.01zm-3.69 16.24c1.17 3.05 3.33 11.22 3.69 12.1 1.43 3.5-.66 5.85-2 8.4-.91 1.74-3.64 4.96-3.87 4.96-1.2-7.27-2.49-14.53-3.5-21.82-.41-3.16 3.36-9.15 5.68-3.64zM176 102.16c2.69-4.86 6.46 7.23 7.35 10.31.64 2.21.48 3.82-1.07 5.95-1.14 1.56-2.44 3.03-3.91 4.92-1.45-6.33-5.06-16.32-2.37-21.18z" class="st0"/>
    <path d="M276.01 112.29c-.45-12.81-10.98-23.05-23.89-23.05h-33.08c-4.66 25.35-14.74 40.67-25.55 49.93-2.95 4.15-5.63 8.12-7.93 12.03-9.3 15.78-12.49 30.65-2.77 52.79.17.28.22.59.43.59h12.77v-.02c12.81-.45 23.05-10.98 23.05-23.89v-19.04-7.33-1.15h57v-23.91-16.09-.86h-.03z" class="st1"/>
  </g>
  <g>
    <path d="M63.89 314.15c1.13.98 1.69 2.29 1.69 3.94s-.56 2.96-1.69 3.94-2.63 1.47-4.52 1.47h-4.05v7.47h-2.45v-18.3h6.5c1.88.01 3.39.5 4.52 1.48zm-1.95 6.38c.7-.61 1.06-1.42 1.06-2.44 0-1.01-.35-1.83-1.06-2.44-.7-.61-1.65-.91-2.84-.91h-3.79v6.7h3.79c1.19 0 2.14-.3 2.84-.91zM68.56 330.25c-.79-.69-1.18-1.61-1.18-2.76 0-1.36.6-2.37 1.8-3.04.93-.46 2.37-.82 4.33-1.06l2.4-.28v-.21c0-1.19-.22-2.04-.67-2.55-.45-.52-1.17-.77-2.16-.77-.88 0-1.57.22-2.09.67s-.8 1.07-.85 1.88h-2.35c.09-1.32.6-2.38 1.56-3.17.95-.79 2.19-1.19 3.7-1.19 1.77 0 3.06.43 3.87 1.28.81.85 1.21 2.21 1.21 4.08v3.48c0 1.96.15 3.41.44 4.36h-2.29c-.1-.72-.17-1.5-.21-2.35-.29.83-.83 1.47-1.6 1.95-.77.47-1.68.71-2.73.71-1.34 0-2.39-.34-3.18-1.03zm6.35-1.89c.68-.75 1.02-1.75 1.02-3v-.64l-3.51.52c-.94.14-1.64.38-2.07.73-.44.35-.66.85-.66 1.48s.22 1.13.67 1.49c.45.36 1.07.54 1.86.54 1.11 0 2.01-.37 2.69-1.12zM80.74 318.09h2.4v-3.38l2.19-.93v4.3h3.22v1.8h-3.22v7.14c0 .74.15 1.28.45 1.61.3.34.78.5 1.43.5.38 0 .83-.06 1.34-.18v2.01c-.57.15-1.2.23-1.91.23-1.31 0-2.22-.35-2.73-1.06-.52-.7-.77-1.72-.77-3.04v-7.22h-2.4v-1.78zM92.12 312.94h2.5v2.76h-2.5v-2.76zm.16 5.15h2.19v12.88h-2.19v-12.88zM109.8 325.18h-9.15c.02 1.25.38 2.26 1.07 3.03.7.77 1.62 1.15 2.77 1.15 1.7 0 2.84-.82 3.43-2.45l1.8.8c-.91 2.39-2.71 3.58-5.39 3.58-1.86 0-3.3-.57-4.33-1.71-1.03-1.14-1.55-2.77-1.55-4.88 0-2.16.52-3.86 1.55-5.08 1.03-1.22 2.46-1.83 4.3-1.83 1.75 0 3.11.5 4.06 1.5s1.43 2.45 1.43 4.35v1.54zm-2.22-2.06c0-1.17-.29-2.06-.86-2.68-.57-.62-1.4-.93-2.46-.93-1.12 0-1.99.34-2.62 1.03-.63.69-.96 1.64-.99 2.86h6.93v-.28zM113.91 318.09h2.06v2.55c.84-1.94 2.27-2.91 4.3-2.91 2.87 0 4.3 1.74 4.3 5.23v8.01h-2.19v-7.89c0-2.29-.95-3.43-2.84-3.43-1.06 0-1.91.41-2.53 1.22-.62.82-.93 1.94-.93 3.36v6.73h-2.19v-12.87zM127.15 318.09h2.4v-3.38l2.19-.93v4.3h3.22v1.8h-3.22v7.14c0 .74.15 1.28.45 1.61.3.34.78.5 1.43.5.38 0 .83-.06 1.34-.18v2.01c-.57.15-1.2.23-1.91.23-1.31 0-2.22-.35-2.73-1.06-.52-.7-.77-1.72-.77-3.04v-7.22h-2.4v-1.78zM146.84 328.71c-1.4-1.8-2.1-4.11-2.1-6.93 0-2.89.72-5.2 2.16-6.93 1.44-1.74 3.49-2.6 6.16-2.6 2.15 0 3.83.57 5.05 1.73 1.22 1.15 1.95 2.71 2.19 4.69l-2.5.26c-.19-1.41-.7-2.53-1.53-3.35-.83-.82-1.95-1.24-3.34-1.24-1.77 0-3.15.67-4.14 2.02-.99 1.35-1.48 3.15-1.48 5.4 0 2.22.49 4.02 1.48 5.42.99 1.4 2.38 2.1 4.19 2.1 1.29 0 2.37-.4 3.25-1.2.88-.8 1.44-1.89 1.7-3.26l2.37.41c-.38 1.86-1.17 3.35-2.38 4.49-1.21 1.13-2.86 1.7-4.93 1.7-2.7-.01-4.75-.91-6.15-2.71zM164.32 330.25c-.79-.69-1.18-1.61-1.18-2.76 0-1.36.6-2.37 1.8-3.04.93-.46 2.37-.82 4.33-1.06l2.4-.28v-.21c0-1.19-.22-2.04-.67-2.55-.45-.52-1.17-.77-2.16-.77-.88 0-1.57.22-2.09.67s-.8 1.07-.85 1.88h-2.35c.09-1.32.6-2.38 1.56-3.17.95-.79 2.19-1.19 3.7-1.19 1.77 0 3.06.43 3.87 1.28.81.85 1.21 2.21 1.21 4.08v3.48c0 1.96.15 3.41.44 4.36h-2.29c-.1-.72-.17-1.5-.21-2.35-.29.83-.83 1.47-1.6 1.95-.77.47-1.68.71-2.73.71-1.33 0-2.39-.34-3.18-1.03zm6.35-1.89c.68-.75 1.02-1.75 1.02-3v-.64l-3.51.52c-.94.14-1.64.38-2.07.73-.44.35-.66.85-.66 1.48s.22 1.13.67 1.49c.45.36 1.07.54 1.86.54 1.11 0 2.01-.37 2.69-1.12zM182.23 318.68c.68-.6 1.48-.9 2.41-.9.21 0 .36.01.46.03v2.14h-.1c-1.22 0-2.17.33-2.84 1.01-.38.38-.67.85-.88 1.42-.21.57-.33 1.06-.36 1.47-.03.41-.05.95-.05 1.62v5.51h-2.19V318.1h2.04v2.94c.33-.97.84-1.76 1.51-2.36zM198.37 325.18h-9.15c.02 1.25.38 2.26 1.07 3.03.7.77 1.62 1.15 2.77 1.15 1.7 0 2.84-.82 3.43-2.45l1.8.8c-.91 2.39-2.71 3.58-5.39 3.58-1.86 0-3.3-.57-4.33-1.71-1.03-1.14-1.55-2.77-1.55-4.88 0-2.16.52-3.86 1.55-5.08 1.03-1.22 2.46-1.83 4.3-1.83 1.75 0 3.11.5 4.06 1.5s1.43 2.45 1.43 4.35v1.54zm-2.21-2.06c0-1.17-.29-2.06-.86-2.68-.57-.62-1.4-.93-2.46-.93-1.12 0-1.99.34-2.62 1.03-.63.69-.96 1.64-.99 2.86h6.93v-.28zM220.98 314.15c1.13.98 1.69 2.29 1.69 3.94s-.56 2.96-1.69 3.94-2.63 1.47-4.52 1.47h-4.05v7.47h-2.45v-18.3h6.5c1.88.01 3.39.5 4.52 1.48zm-1.95 6.38c.7-.61 1.06-1.42 1.06-2.44 0-1.01-.35-1.83-1.06-2.44-.7-.61-1.65-.91-2.84-.91h-3.79v6.7h3.79c1.19 0 2.14-.3 2.84-.91zM225.65 330.25c-.79-.69-1.18-1.61-1.18-2.76 0-1.36.6-2.37 1.8-3.04.93-.46 2.37-.82 4.33-1.06l2.4-.28v-.21c0-1.19-.22-2.04-.67-2.55-.45-.52-1.17-.77-2.16-.77-.88 0-1.57.22-2.09.67s-.8 1.07-.85 1.88h-2.35c.09-1.32.6-2.38 1.56-3.17.95-.79 2.19-1.19 3.7-1.19 1.77 0 3.06.43 3.87 1.28.81.85 1.21 2.21 1.21 4.08v3.48c0 1.96.15 3.41.44 4.36h-2.29c-.1-.72-.17-1.5-.21-2.35-.29.83-.83 1.47-1.6 1.95-.77.47-1.68.71-2.73.71-1.34 0-2.39-.34-3.18-1.03zm6.35-1.89c.68-.75 1.02-1.75 1.02-3v-.64l-3.51.52c-.94.14-1.64.38-2.07.73-.44.35-.66.85-.66 1.48s.22 1.13.67 1.49c.45.36 1.07.54 1.86.54 1.11 0 2.01-.37 2.69-1.12zM243.56 318.68c.68-.6 1.48-.9 2.41-.9.21 0 .36.01.46.03v2.14h-.1c-1.22 0-2.17.33-2.84 1.01-.38.38-.67.85-.88 1.42-.21.57-.33 1.06-.36 1.47-.03.41-.05.95-.05 1.62v5.51h-2.19V318.1h2.04v2.94c.33-.97.83-1.76 1.51-2.36zM248.49 318.09h2.4v-3.38l2.19-.93v4.3h3.22v1.8h-3.22v7.14c0 .74.15 1.28.45 1.61.3.34.78.5 1.43.5.38 0 .83-.06 1.34-.18v2.01c-.57.15-1.2.23-1.91.23-1.31 0-2.22-.35-2.73-1.06-.52-.7-.77-1.72-.77-3.04v-7.22h-2.4v-1.78zM260.03 318.09h2.06v2.55c.84-1.94 2.27-2.91 4.3-2.91 2.87 0 4.3 1.74 4.3 5.23v8.01h-2.19v-7.89c0-2.29-.94-3.43-2.84-3.43-1.06 0-1.91.41-2.53 1.22-.62.82-.93 1.94-.93 3.36v6.73h-2.19v-12.87zM285.64 325.18h-9.15c.02 1.25.38 2.26 1.07 3.03.7.77 1.62 1.15 2.77 1.15 1.7 0 2.84-.82 3.43-2.45l1.8.8c-.91 2.39-2.71 3.58-5.39 3.58-1.86 0-3.3-.57-4.33-1.71-1.03-1.14-1.55-2.77-1.55-4.88 0-2.16.52-3.86 1.55-5.08 1.03-1.22 2.46-1.83 4.3-1.83 1.75 0 3.11.5 4.06 1.5s1.43 2.45 1.43 4.35v1.54zm-2.22-2.06c0-1.17-.29-2.06-.86-2.68-.57-.62-1.4-.93-2.46-.93-1.12 0-1.99.34-2.62 1.03-.63.69-.96 1.64-.99 2.86h6.93v-.28zM293.3 318.68c.68-.6 1.48-.9 2.41-.9.21 0 .36.01.46.03v2.14h-.1c-1.22 0-2.17.33-2.84 1.01-.38.38-.67.85-.88 1.42-.21.57-.33 1.06-.36 1.47-.03.41-.05.95-.05 1.62v5.51h-2.19V318.1h2.04v2.94c.33-.97.83-1.76 1.51-2.36zM299.79 330.25c-.97-.69-1.57-1.67-1.79-2.94l2.22-.39c.16.81.52 1.43 1.11 1.88.58.45 1.35.67 2.29.67.84 0 1.5-.18 1.97-.55.47-.37.71-.84.71-1.4 0-.55-.15-.96-.46-1.24-.31-.28-.77-.46-1.39-.57l-2.53-.46c-2.29-.43-3.43-1.63-3.43-3.61 0-1.13.44-2.06 1.33-2.78.89-.72 2.08-1.08 3.57-1.08 1.44 0 2.62.31 3.54.93.92.62 1.44 1.47 1.56 2.55l-2.16.49c-.15-.67-.49-1.2-1-1.6-.52-.4-1.2-.59-2.04-.59-.83 0-1.47.17-1.95.52-.47.34-.71.83-.71 1.47 0 .98.66 1.59 1.98 1.83l2.5.46c2.23.43 3.35 1.6 3.35 3.51 0 1.18-.43 2.14-1.3 2.86-.87.72-2.08 1.08-3.62 1.08-1.53-.01-2.78-.35-3.75-1.04z" class="st0"/>
  </g>
</svg>