<svg id="Layer_1" data-name="Layer 1" xmlns="http://www.w3.org/2000/svg" width="4.27in" height="4.19in" viewBox="0 0 307.61 301.47">
  <g>
    <g>
      <g>
        <path d="M55.78,331.1a34.43,34.43,0,0,1-12-2,26,26,0,0,1-9.21-5.75A26.77,26.77,0,0,1,28.49,314a35.19,35.19,0,0,1-2.26-13.07,34.75,34.75,0,0,1,2.3-13.15,25.51,25.51,0,0,1,15.39-14.95,34.49,34.49,0,0,1,11.86-2,34.43,34.43,0,0,1,11.85,2,26.84,26.84,0,0,1,9.3,5.68,26,26,0,0,1,6.2,9.27,34.78,34.78,0,0,1,2.31,13.15,35.79,35.79,0,0,1-2.27,13.24,25.66,25.66,0,0,1-6.1,9.3,26.1,26.1,0,0,1-9.27,5.66A35.21,35.21,0,0,1,55.78,331.1Zm.11-53.57a17.27,17.27,0,0,0-13.81,6.23c-3.31,3.93-5,9.7-5,17.15s1.64,13.21,4.89,17.16a17,17,0,0,0,13.79,6.32,17.12,17.12,0,0,0,13.89-6.32c3.25-3.95,4.9-9.73,4.9-17.16s-1.62-13.08-4.83-17A17,17,0,0,0,55.89,277.53Z" transform="translate(-26.23 -29.85)" style="fill: rgb(0, 173, 187);" class="svg-elem-1"></path>
        <path d="M106.91,331a46.39,46.39,0,0,1-7.64-.59,20,20,0,0,1-5.41-1.6,7.61,7.61,0,0,1-2.79-2.15,3.52,3.52,0,0,1-.7-2.27,4.32,4.32,0,0,1,.44-2.12q2.25,1,4.8,1.86a33.64,33.64,0,0,0,10.55,1.55,14.55,14.55,0,0,0,7.06-1.47,7,7,0,0,0,3.94-6.23,6.8,6.8,0,0,0-3.13-5.81,15.46,15.46,0,0,0-5.86-2l-3.11-.62c-5.46-1.07-9.47-2.68-11.92-4.78-2.08-1.79-3.09-4.4-3.09-8a10.72,10.72,0,0,1,1.22-5.19,10.84,10.84,0,0,1,3.49-3.87,20.27,20.27,0,0,1,6.15-2.72,32.4,32.4,0,0,1,8.45-1,40.82,40.82,0,0,1,6.73.53,20.06,20.06,0,0,1,5,1.44,6.77,6.77,0,0,1,2.54,1.86,2.71,2.71,0,0,1,.58,1.82,5.5,5.5,0,0,1-.33,2c-1.23-.42-2.58-.8-4-1.15s-2.94-.63-4.44-.86a28.93,28.93,0,0,0-4.43-.37,18.26,18.26,0,0,0-7,1.12,6.75,6.75,0,0,0-4.49,6.36,6.36,6.36,0,0,0,2.86,5.34,15,15,0,0,0,5.56,2l3.26.74c7.54,1.73,11,3.9,12.61,5.41a9.91,9.91,0,0,1,3,7.6,10.86,10.86,0,0,1-4.42,9.37C119,329.73,113.84,331,106.91,331Z" transform="translate(-26.23 -29.85)" style="fill: rgb(0, 173, 187);" class="svg-elem-2"></path>
        <path d="M140.46,330a21.41,21.41,0,0,1-3.51-.26,3.08,3.08,0,0,1-1.35-.51,1.94,1.94,0,0,1-.63-.89,7.22,7.22,0,0,1-.37-2.71V285.76a24.55,24.55,0,0,1,3.94-.32,21.41,21.41,0,0,1,3.51.26,3.13,3.13,0,0,1,1.35.51,2,2,0,0,1,.63.89,7.22,7.22,0,0,1,.37,2.71v39.91A24.64,24.64,0,0,1,140.46,330Zm-1-57.53a5.42,5.42,0,0,1-4.23-1.52,5.76,5.76,0,0,1,0-7.82,6.6,6.6,0,0,1,8.45,0,5.76,5.76,0,0,1,0,7.82A5.4,5.4,0,0,1,139.5,272.51Z" transform="translate(-26.23 -29.85)" style="fill: rgb(0, 173, 187);" class="svg-elem-3"></path>
      </g>
      <g>
        <path d="M160.15,328.38a8.72,8.72,0,0,1-2.4-6.45V265.68c.78-.14,1.9-.32,3.36-.53a30.33,30.33,0,0,1,4.32-.32q4.8,0,6.94,1.6t2.13,6.3v44.5h25.62a15.24,15.24,0,0,1,1.22,2.78,11.4,11.4,0,0,1,.59,3.73,7.8,7.8,0,0,1-1.55,5.28,5.3,5.3,0,0,1-4.21,1.76H166.61A8.72,8.72,0,0,1,160.15,328.38Z" transform="translate(-26.23 -29.85)" style="fill: rgb(255, 164, 0);" class="svg-elem-4"></path>
        <path d="M217,331.32q-5,0-7-1.71t-2-6.19V265.68c.78-.14,1.9-.32,3.36-.53a31.11,31.11,0,0,1,4.43-.32q4.8,0,6.89,1.6c1.38,1.07,2.08,3.17,2.08,6.3v57.73a24.69,24.69,0,0,1-3.31.59A35.83,35.83,0,0,1,217,331.32Z" transform="translate(-26.23 -29.85)" style="fill: rgb(255, 164, 0);" class="svg-elem-5"></path>
        <path d="M279.83,265.9a13.13,13.13,0,0,1,1.18,2.77,12.71,12.71,0,0,1,.53,3.74,7.6,7.6,0,0,1-1.55,5.23,5.52,5.52,0,0,1-4.32,1.71H252v14H276.2a19.8,19.8,0,0,1,1.23,2.77,10.87,10.87,0,0,1,.59,3.74c0,2.34-.53,4.07-1.6,5.17a5.64,5.64,0,0,1-4.27,1.65h-20v23.8a24.19,24.19,0,0,1-3.3.59,35.88,35.88,0,0,1-4.49.27q-5,0-7-1.71t-2-6.19V274.76a8.27,8.27,0,0,1,8.86-8.86Z" transform="translate(-26.23 -29.85)" style="fill: rgb(255, 164, 0);" class="svg-elem-6"></path>
        <path d="M289.92,328.38a8.72,8.72,0,0,1-2.4-6.45V274.76a8.27,8.27,0,0,1,8.86-8.86H331.7a13,13,0,0,1,1.17,2.67,11.25,11.25,0,0,1,.54,3.62c0,2.35-.52,4.1-1.55,5.23a5.52,5.52,0,0,1-4.32,1.71H303.85v11.95H328.6a13.78,13.78,0,0,1,1.18,2.67,11.65,11.65,0,0,1,.53,3.63c0,2.35-.5,4.07-1.49,5.18a5.47,5.47,0,0,1-4.27,1.65h-20.7v13.34h28.28a13.58,13.58,0,0,1,1.17,2.78,12.32,12.32,0,0,1,.53,3.73q0,3.53-1.54,5.12a5.6,5.6,0,0,1-4.22,1.6H296.38A8.72,8.72,0,0,1,289.92,328.38Z" transform="translate(-26.23 -29.85)" style="fill: rgb(255, 164, 0);" class="svg-elem-7"></path>
      </g>
    </g>
    <g>
      <path d="M140,115.86c-.95-4.38,1.7-6.35,5.79-4.55a17.76,17.76,0,0,1,10.77,15.1c.91,9.32-1.94,18.78,0,28.17a6.1,6.1,0,0,0,7.24,4.77c5.59-.88,10-4.11,13.32-8.24A241,241,0,0,0,194,127.57c6.25-10.06,8.45-21.95,10.49-33.81.76-4.42,1.29-8.91,2.39-13.21a9.43,9.43,0,0,1,3.32-5c2.64-2,5-.92,5.65,2.56,3,20.31.67,44.56-7.08,62.69-2.9,6.67-7.1,12.73-11.18,18.7l-1.3,1.82c12.79-11,24.72-29.1,30.24-59.09V29.85h-49v0a28.3,28.3,0,0,0-26.66,28.25v3.92h0v40.2H85.06v49h0a28.3,28.3,0,0,0,28.25,26.65H130.2c2.34-14.05,5-26.57,6.81-32.24C140.1,136.06,142.35,126.47,140,115.86Zm53-33.79c1.24-2.13,3.35-1.52,4.55.85,4.18,8.24,3.74,16.26.81,24.21-1,2.81-1.89,5.69-3,9.13-1.82-9.67-4.13-17.74-4.48-27.07A15,15,0,0,1,193,82.07Zm-4.38,19.23c1.38,3.61,4,13.28,4.38,14.32,1.69,4.14-.78,6.93-2.37,9.95a28.47,28.47,0,0,1-4.58,5.87c-1.42-8.61-2.95-17.2-4.15-25.82C181.45,101.87,185.9,94.78,188.64,101.3Zm-13,16.26c3.19-5.75,7.65,8.55,8.7,12.2a7.1,7.1,0,0,1-1.27,7c-1.34,1.85-2.88,3.6-4.62,5.83C176.69,135.14,172.42,123.31,175.61,117.56Z" transform="translate(-26.23 -29.85)" style="fill: rgb(0, 173, 187);" class="svg-elem-8"></path>
      <path d="M294,129.54a28.29,28.29,0,0,0-28.27-27.27H226.53c-5.52,30-17.45,48.13-30.24,59.09-3.49,4.91-6.66,9.61-9.39,14.23-11,18.68-14.78,36.28-3.28,62.49.21.33.26.7.51.7h15.12v0a28.31,28.31,0,0,0,27.28-28.28V187.94h0v-10H294V129.54Z" transform="translate(-26.23 -29.85)" style="fill: rgb(255, 164, 0);" class="svg-elem-9"></path>
    </g>
  </g>
</svg>
