<?xml version="1.0" encoding="UTF-8"?>
<svg width="158px" height="64px" viewBox="0 0 158 64" version="1.1" xmlns="http://www.w3.org/2000/svg" xmlns:xlink="http://www.w3.org/1999/xlink">
    <title>crown-rewards-logo-primary</title>
    <g id="Content-Tile" stroke="none" stroke-width="1" fill="none" fill-rule="evenodd">
        <g id="MGE-ContentTile-xl" transform="translate(-561.000000, -1085.000000)" fill-rule="nonzero">
            <g id="Group-6" transform="translate(32.000000, 603.000000)">
                <g id="Content-tile/large-Copy" transform="translate(416.000000, 436.000000)">
                    <g id="crown-rewards-logo-primary" transform="translate(113.000000, 46.000000)">
                        <path d="M78.1108616,3.13226513 C89.4000672,3.13226513 98.5358404,12.3332939 98.5358404,23.557244 C98.5358404,34.781194 89.4000672,44.0474783 78.1108616,44.0474783 C66.821656,44.0474783 57.6858827,34.8464495 57.6858827,23.557244 C57.6858827,12.2680384 66.821656,3.13226513 78.1108616,3.13226513 M78.1108616,0.522044188 C65.3860345,0.522044188 55.0756618,10.8324169 55.0756618,23.557244 C55.0756618,36.282071 65.3860345,46.5924438 78.1108616,46.5924438 C90.8356887,46.5924438 101.146061,36.282071 101.146061,23.557244 C101.146061,10.8324169 90.8356887,0.522044188 78.1108616,0.522044188 Z" id="Shape" fill="#603695"></path>
                        <path d="M8.15694043,60.6876368 C7.30861863,61.4707031 6.46029682,62.0580028 5.15518635,62.0580028 C3.13226513,62.0580028 1.56613256,60.3613592 1.56613256,58.2079269 C1.56613256,56.0544947 3.0670096,54.4231066 5.15518635,54.4231066 C6.26453025,54.4231066 7.11285206,54.8146397 8.02642939,55.728217 L8.15694043,55.8587281 L9.13577329,54.8146397 L9.00526224,54.6841287 C8.15694043,53.9010624 7.04759653,53.1179961 5.15518635,53.1179961 C2.34919884,53.1179961 0.130511047,55.4019394 0.130511047,58.338438 C0.130511047,61.2749365 2.28394332,63.4936243 5.15518635,63.4936243 C7.17810758,63.4936243 8.28745148,62.580047 9.13577329,61.7317252 L9.26628433,61.6012142 L8.28745148,60.6876368 L8.15694043,60.6876368 Z" id="Path" fill="#9F8AC0"></path>
                        <path d="M21.4690672,56.2502612 C21.4690672,55.4671949 21.2080451,54.7493842 20.6860009,54.22734 C20.0334457,53.5747848 18.9893573,53.1832516 17.8147579,53.1832516 L13.5078934,53.1832516 L13.5078934,63.1673467 L14.9435149,63.1673467 L14.9435149,59.4477819 L17.4232248,59.4477819 L20.2292123,63.1673467 L21.9911114,63.1673467 L18.9893573,59.1867598 C20.5554899,58.8604822 21.4690672,57.7511383 21.4690672,56.2502612 M14.9435149,54.5536176 L17.7495024,54.5536176 C19.1851239,54.5536176 20.0334457,55.2061729 20.0334457,56.3155168 C20.0334457,57.4248607 19.1198684,58.1426714 17.7495024,58.1426714 L14.9435149,58.1426714 L14.9435149,54.5536176 Z" id="Shape" fill="#9F8AC0"></path>
                        <path d="M30.2133074,53.0527406 C27.3420643,53.0527406 25.1233765,55.3366839 25.1233765,58.2731825 C25.1233765,61.209681 27.2768088,63.4283688 30.2133074,63.4283688 C33.0845504,63.4283688 35.3032382,61.1444255 35.3032382,58.2731825 C35.3032382,55.2714284 33.0845504,53.0527406 30.2133074,53.0527406 M30.2133074,61.9927473 C28.1251306,61.9927473 26.5589981,60.3613592 26.5589981,58.1426714 C26.5589981,55.9892391 28.1251306,54.357851 30.1480518,54.357851 C32.2362286,54.357851 33.8023612,55.9892391 33.8023612,58.2079269 C33.8023612,60.3613592 32.3014841,61.9927473 30.2133074,61.9927473" id="Shape" fill="#9F8AC0"></path>
                        <polygon id="Path" fill="#9F8AC0" points="44.7652891 53.1832516 42.2203237 60.8834034 39.6101027 53.1832516 38.0439702 53.1832516 41.5677685 63.2978578 42.7423679 63.2978578 45.2873333 55.8587281 47.7670432 63.2978578 48.9416426 63.2978578 52.5306964 53.1832516 51.0298194 53.1832516 48.4195984 60.8834034 45.874633 53.1832516"></polygon>
                        <polygon id="Path" fill="#9F8AC0" points="63.950413 53.1832516 63.950413 60.6223813 58.1426714 53.1832516 56.8375609 53.1832516 56.8375609 63.2326022 58.2731825 63.2326022 58.2731825 55.6629615 64.1461796 63.1673467 64.2114351 63.2326022 65.320779 63.2326022 65.320779 53.1832516"></polygon>
                        <g id="Group" transform="translate(64.602968, 11.745994)" fill="#603695">
                            <path d="M17.2274582,44.504267 C17.2274582,43.7212007 16.9664361,43.00339 16.4443919,42.4813458 C15.7918367,41.8287905 14.7477483,41.4372574 13.5731489,41.4372574 L9.26628433,41.4372574 L9.26628433,51.4213525 L10.7019058,51.4213525 L10.7019058,47.7017877 L13.1816157,47.7017877 L15.9876033,51.4213525 L17.7495024,51.4213525 L14.7477483,47.4407656 C16.3138809,47.1144879 17.2274582,46.005144 17.2274582,44.504267 M10.7019058,42.8076234 L13.5078934,42.8076234 C14.9435149,42.8076234 15.7918367,43.4601786 15.7918367,44.5695225 C15.7918367,45.6788664 14.8782594,46.3966772 13.5078934,46.3966772 L10.7019058,46.3966772 L10.7019058,42.8076234 Z" id="Shape"></path>
                            <polygon id="Path" points="21.2733007 41.4372574 21.2733007 51.486608 28.7124303 51.486608 28.7124303 50.116242 22.7089222 50.116242 22.7089222 47.1144879 27.9946196 47.1144879 27.9946196 45.744122 22.7089222 45.744122 22.7089222 42.8076234 28.5819193 42.8076234 28.5819193 41.4372574"></polygon>
                            <polygon id="Path" points="38.5007588 41.4372574 35.9557934 49.1374092 33.3455725 41.4372574 31.7794399 41.4372574 35.3684937 51.5518635 36.5430931 51.5518635 39.022803 44.1127339 41.5677685 51.5518635 42.7423679 51.5518635 46.3314217 41.4372574 44.7652891 41.4372574 42.1550682 49.1374092 39.6753583 41.4372574"></polygon>
                            <path d="M52.9222295,43.2644121 L54.8146397,47.5712766 L50.9645638,47.5712766 L52.9222295,43.2644121 Z M52.3349298,41.3720019 L47.7670432,51.4213525 L49.2679202,51.4213525 L50.4425196,48.8763871 L55.4671949,48.8763871 L56.5765388,51.4213525 L58.1426714,51.4213525 L53.5747848,41.3720019 L52.3349298,41.3720019 Z" id="Shape"></path>
                            <path d="M69.6928991,44.504267 C69.6928991,43.7212007 69.431877,43.00339 68.9098328,42.4813458 C68.2572775,41.8287905 67.2131892,41.4372574 66.0385898,41.4372574 L61.7317252,41.4372574 L61.7317252,51.4213525 L63.1673467,51.4213525 L63.1673467,47.7017877 L65.6470566,47.7017877 L68.4530441,51.4213525 L70.2149433,51.4213525 L67.2131892,47.4407656 C68.7140662,47.1144879 69.6928991,46.005144 69.6928991,44.504267 M63.1020912,42.8076234 L65.9080787,42.8076234 C67.3437002,42.8076234 68.192022,43.4601786 68.192022,44.5695225 C68.192022,45.6788664 67.2784447,46.3966772 65.9080787,46.3966772 L63.1020912,46.3966772 L63.1020912,42.8076234 Z" id="Shape"></path>
                            <path d="M77.2625398,41.4372574 L73.7387415,41.4372574 L73.7387415,51.4213525 L77.2625398,51.4213525 C80.3295494,51.4213525 82.5482372,49.3331757 82.5482372,46.3966772 C82.5482372,43.5906897 80.3295494,41.4372574 77.2625398,41.4372574 M77.2625398,50.116242 L75.174363,50.116242 L75.174363,42.8076234 L77.2625398,42.8076234 C79.4812276,42.8076234 81.1126157,44.3085004 81.1126157,46.4619327 C81.0473601,48.615365 79.4812276,50.116242 77.2625398,50.116242" id="Shape"></path>
                            <path d="M89.4653227,45.744122 C87.3771459,45.2873333 86.9856128,44.8305446 86.9856128,43.9822228 C86.9856128,43.1991565 87.7686791,42.6118568 88.878023,42.6118568 C89.8568558,42.6118568 90.7051776,42.9381344 91.5534994,43.5906897 L91.6840105,43.7212007 L92.5323323,42.6118568 L92.4018212,42.4813458 C91.3577329,41.633024 90.3136445,41.2414908 88.878023,41.2414908 C86.9203573,41.2414908 85.5499913,42.4160903 85.5499913,44.0474783 C85.5499913,45.874633 86.9203573,46.5924438 88.9432785,46.9839769 C90.9661997,47.37551 91.2924773,47.8975542 91.2924773,48.6806205 C91.2924773,49.5289423 90.5094111,50.116242 89.3348116,50.116242 C88.0949567,50.116242 87.1813794,49.7247089 86.137291,48.8111316 L86.0067799,48.6806205 L85.0932026,49.7247089 L85.2237137,49.8552199 C86.4635686,50.9645638 87.7034235,51.4213525 89.2695561,51.4213525 C91.2924773,51.4213525 92.7280988,50.2467531 92.7280988,48.4848539 C92.7280988,47.1144879 91.749266,46.2661661 89.4653227,45.744122" id="Path"></path>
                            <path d="M1.43562152,7.63489625 C0.783066282,7.63489625 0.19576657,7.04759653 0.19576657,6.3950413 C0.19576657,5.67723054 0.783066282,5.15518635 1.43562152,5.15518635 C2.08817675,5.15518635 2.67547646,5.67723054 2.67547646,6.3950413 C2.67547646,7.04759653 2.08817675,7.63489625 1.43562152,7.63489625 M25.5801652,9.52730643 C24.7318434,11.3544611 22.8394332,16.1833698 22.0563669,18.4020576 C21.9911114,18.5978242 21.8606004,18.5978242 21.6648338,18.4673131 C19.9681902,17.5537358 16.9011806,17.2274582 14.0951931,17.2274582 C11.2892056,17.2274582 8.22219596,17.5537358 6.52555235,18.4673131 C6.32978578,18.5978242 6.19927473,18.5978242 6.13401921,18.4020576 C5.35095292,16.1833698 3.45854274,11.3544611 2.61022094,9.52730643 C2.54496542,9.39679538 2.47970989,9.26628433 2.47970989,9.20102881 C2.47970989,9.00526224 2.61022094,8.87475119 2.74073199,8.87475119 C2.87124303,8.87475119 3.00175408,9.00526224 3.0670096,9.13577329 C3.91533141,10.5061393 4.82890874,12.0722718 5.67723054,13.1163602 C5.93825264,13.3773823 6.19927473,13.7036599 6.65606339,13.7036599 C7.04759653,13.7036599 7.43912968,13.3773823 7.56964072,12.7900826 C7.70015177,11.4197166 7.56964072,10.1798617 7.43912968,9.13577329 C7.37387415,8.94000672 7.5043852,8.74424014 7.70015177,8.74424014 C7.83066282,8.74424014 7.96117386,8.80949567 8.02642939,9.00526224 C8.48321805,10.1146061 8.94000672,11.22395 9.65781747,12.1375274 C9.91883957,12.463805 10.3103727,12.7900826 10.8324169,12.7900826 C11.2892056,12.7900826 11.7459942,12.5290605 12.1375274,12.0722718 C13.2468713,10.5713948 13.4426378,6.52555235 13.7036599,4.63314217 C13.7036599,4.4373756 13.834171,4.30686455 14.0299375,4.30686455 C14.2257041,4.30686455 14.3562152,4.4373756 14.3562152,4.63314217 C14.6172373,6.52555235 14.8130038,10.5713948 15.9223477,12.0722718 C16.3138809,12.5290605 16.7706695,12.7900826 17.2274582,12.7900826 C17.7495024,12.7900826 18.1410355,12.463805 18.4020576,12.1375274 C19.1198684,11.22395 19.576657,10.1146061 20.0334457,9.00526224 C20.0987012,8.80949567 20.2292123,8.74424014 20.3597233,8.74424014 C20.5554899,8.74424014 20.6860009,8.94000672 20.6207454,9.13577329 C20.4902344,10.1798617 20.3597233,11.4197166 20.4902344,12.7900826 C20.6207454,13.3773823 21.0122786,13.7036599 21.4038117,13.7036599 C21.8606004,13.7036599 22.1216225,13.3773823 22.3826446,13.1163602 C23.2309664,12.0722718 24.1445437,10.5061393 24.9928655,9.13577329 C25.058121,9.00526224 25.1886321,8.87475119 25.3191431,8.87475119 C25.4496542,8.87475119 25.5801652,9.00526224 25.5801652,9.20102881 C25.7106762,9.26628433 25.6454207,9.39679538 25.5801652,9.52730643 M6.85182996,7.17810758 C6.19927473,7.17810758 5.61197502,6.59080787 5.61197502,5.93825264 C5.61197502,5.22044188 6.19927473,4.69839769 6.85182996,4.69839769 C7.5043852,4.69839769 8.09168491,5.22044188 8.09168491,5.93825264 C8.15694043,6.59080787 7.5043852,7.17810758 6.85182996,7.17810758 M14.0299375,23.2309664 C11.1586945,23.2309664 6.52555235,22.7741777 6.52555235,21.1427896 C6.52555235,19.5114015 11.1586945,19.0546129 14.0299375,19.0546129 C16.9011806,19.0546129 21.5343227,19.5114015 21.5343227,21.1427896 C21.5343227,22.7741777 16.9664361,23.2309664 14.0299375,23.2309664 M14.0299375,19.9681902 C11.1586945,19.9681902 7.83066282,20.4902344 7.83066282,21.1427896 C7.83066282,21.7300893 11.093439,22.2521335 14.0299375,22.2521335 C16.9011806,22.2521335 20.2292123,21.7300893 20.2292123,21.1427896 C20.2292123,20.4902344 16.9664361,19.9681902 14.0299375,19.9681902 M14.0299375,2.67547646 C13.3773823,2.67547646 12.7900826,2.15343227 12.7900826,1.43562152 C12.7900826,0.783066282 13.3773823,0.19576657 14.0299375,0.19576657 C14.6824928,0.19576657 15.2697925,0.783066282 15.2697925,1.43562152 C15.2697925,2.15343227 14.6824928,2.67547646 14.0299375,2.67547646 M21.2080451,7.17810758 C20.5554899,7.17810758 19.9681902,6.59080787 19.9681902,5.93825264 C19.9681902,5.22044188 20.5554899,4.69839769 21.2080451,4.69839769 C21.8606004,4.69839769 22.4479001,5.22044188 22.4479001,5.93825264 C22.4479001,6.59080787 21.8606004,7.17810758 21.2080451,7.17810758 M26.6895091,7.63489625 C26.0369539,7.63489625 25.4496542,7.04759653 25.4496542,6.3950413 C25.4496542,5.67723054 26.0369539,5.15518635 26.6895091,5.15518635 C27.3420643,5.15518635 27.929364,5.67723054 27.929364,6.3950413 C27.929364,7.04759653 27.3420643,7.63489625 26.6895091,7.63489625" id="Shape"></path>
                        </g>
                    </g>
                </g>
            </g>
        </g>
    </g>
</svg>