<?xml version="1.0" encoding="utf-8"?>
<!-- Generator: Adobe Illustrator 22.1.0, SVG Export Plug-In . SVG Version: 6.00 Build 0)  -->
<svg version="1.1" id="Layer_1" xmlns="http://www.w3.org/2000/svg" xmlns:xlink="http://www.w3.org/1999/xlink" x="0px" y="0px"
	 viewBox="0 0 795.2 420.8" style="enable-background:new 0 0 795.2 420.8;" xml:space="preserve">
<style type="text/css">
	.st0{fill:#FFFFFF;}
	.st1{fill:none;stroke:#FFFFFF;stroke-width:4.04;}
</style>
<title>Hero Headline SVG</title>
<path class="st0" d="M261,113.3v-1.9h2.5c0.9,0.1,1.7-0.6,1.8-1.5c0-0.1,0-0.2,0-0.4V92.9c0-1.5-0.3-1.9-1.8-1.9H261v-1.9h12.2V91
	h-2.3c-0.9-0.1-1.7,0.6-1.8,1.5c0,0.1,0,0.2,0,0.4v9.2l10.2-9.2l0.3-0.7c0-0.6-0.3-0.6-1.5-0.6h-2.5v-1.9h12.2v1.9H286
	c-2.5,0-4,1.5-5.6,2.8l-6,5.7l10,10.6c0.8,0.9,1.9,1.4,3.1,1.5h1.8v1.9h-13.4v-1.9h2.5c0.6,0,1.8-0.3,1.8-0.6s-0.3-0.6-1-1.8l-7-7.5
	l-3.5,3.2v4.5c0,1.5,0.3,1.9,1.8,1.9h2.5v1.9L261,113.3L261,113.3z"/>
<path class="st0" d="M300.1,113.3v-1.9h2.5c0.9,0.1,1.7-0.6,1.8-1.5c0-0.1,0-0.2,0-0.4V92.9c0-1.5-0.3-1.9-1.8-1.9h-2.5v-1.9h23.6
	v9.2h-1.9c-0.3-4.5-0.3-7.2-6-7.2h-7.8v8.8h3.1c2.8,0,3.2-0.7,3.2-5h1.9v12h-1.9c-0.3-4.2-0.3-5.3-3.2-5.3h-3.1v9.7h7.7
	c5.3,0,5.7-2.8,6-7.8h2v9.7L300.1,113.3z"/>
<path class="st0" d="M335.9,113.3v-1.9h2.5c0.9,0.1,1.7-0.6,1.8-1.5c0-0.1,0-0.2,0-0.4V92.9c0-1.5-0.3-1.9-1.8-1.9h-2.5v-1.9h23.6
	v9.2h-1.9c-0.3-4.5-0.3-7.2-6-7.2h-7.8v8.8h3.1c2.8,0,3.2-0.7,3.2-5h1.9v12H350c-0.3-4.2-0.3-5.3-3.2-5.3h-3.1v9.7h7.8
	c5.3,0,5.7-2.8,6-7.8h1.9v9.7L335.9,113.3z"/>
<path class="st0" d="M381.3,100.7h5.3c3.2,0,5.7-1.5,5.7-5s-2.5-5-5.7-5h-5.3V100.7z M373.1,113.3v-1.9h2.8c0.9,0.1,1.7-0.6,1.8-1.5
	c0-0.1,0-0.2,0-0.4V92.9c0-1.5-0.3-1.9-1.8-1.9h-2.8v-1.9h12.8c5.7,0,10,1.5,10,7c0,5-4,7-8.5,7h-6.7v7c0,1.5,0.3,2.2,2.5,2.2h2.2
	v1.9h-12.2L373.1,113.3L373.1,113.3z"/>
<path class="st0" d="M427.4,98.3h-1.9c-0.1-4.3-3.7-7.8-8-7.8c-4.6,0-5.7,2.2-5.7,4.5c0,7,17,1.8,17,12c0,5-4.5,7.5-9.5,7.5
	c-3.1,0-5.6-1.5-7.8-3.1l-1,2.8h-1.9v-9.9h1.9c0.3,4.7,4.1,8.4,8.8,8.5c2.8,0,6-1.5,6-4.6c0-7.8-17-1.8-17-12.2c0-3.1,2.5-7,8.5-7
	c3.5,0,5.7,0.7,7.8,2.8l1-2.2h1.8L427.4,98.3L427.4,98.3z"/>
<path class="st0" d="M450.1,93.2l-4,10.6h8.1L450.1,93.2z M437.4,113.3v-1.9h1.5c1.8,0,2.2-0.6,2.5-2.2l8.1-20.2h3.1l8.1,20.8
	c0.2,1.2,1.3,2,2.5,1.9h1.5v1.9h-11.3v-1.9h2.2c1.5,0,1.9-0.3,1.9-0.7c0-0.8-0.2-1.5-0.6-2.2l-1-2.8h-9.7l-1,3.2
	c-0.3,0.7-0.5,1.4-0.6,2.2c0,0.4,0.3,0.7,2.2,0.7h1.9v1.9h-10.8L437.4,113.3L437.4,113.3z"/>
<path class="st0" d="M472.4,113.3v-1.9h2.5c0.9,0.1,1.7-0.6,1.8-1.5c0-0.1,0-0.2,0-0.4V92.9c0-1.5-0.3-1.9-1.8-1.9h-2.5v-1.9h12.2
	V91h-2.5c-0.9-0.1-1.7,0.6-1.8,1.5c0,0.1,0,0.2,0,0.4v9.2l10.3-9.2l0.3-0.7c0-0.6-0.3-0.6-1.5-0.6h-2.2v-1.9h12.2v1.9h-1.8
	c-2.5,0-3.9,1.5-5.6,2.8l-6,5.7l10,10.6c0.8,0.9,1.9,1.4,3.1,1.5h1.8v1.9h-13.3v-1.9h2.5c0.6,0,1.8-0.3,1.8-0.6s-0.3-0.6-1-1.8
	l-7-7.5l-3.5,3.2v4.5c0,1.5,0.3,1.9,1.8,1.9h2.5v1.9l-12-0.6L472.4,113.3z"/>
<path class="st0" d="M511.7,113.3v-1.9h2.5c0.9,0.1,1.7-0.6,1.8-1.5c0-0.1,0-0.2,0-0.4V92.9c0-1.5-0.3-1.9-1.8-1.9h-2.5v-1.9h23.6
	v9.2h-1.9c-0.3-4.5-0.3-7.2-6-7.2h-7.8v8.8h3.1c2.8,0,3.2-0.7,3.2-5h1.9v12H526c-0.3-4.2-0.3-5.3-3.2-5.3h-3.1v9.7h7.8
	c5.3,0,5.7-2.8,6-7.8h1.9v9.7L511.7,113.3z"/>
<path class="st0" d="M380.4,10.4c0.9,0.1,1.7-0.6,1.8-1.5c0-0.1,0-0.2,0-0.3c0-1-0.8-1.8-1.8-1.8s-1.8,0.8-1.8,1.8
	c-0.1,0.9,0.6,1.7,1.4,1.8C380.2,10.4,380.3,10.4,380.4,10.4"/>
<path class="st0" d="M300.5,50.4c0.6,0,1.1,0.2,1.5,0.6c0.3,0.6,0.3,1.5,1,1.9c0.3,0.6,1.9,0.6,2.8,0.7c5,0.5,10,0.8,14.9,0.8v15.4
	c0,0.7,0,2.2,0.6,2.2s0.6-1.5,0.6-2.2c0.3-4.2,0.3-8.3,0.3-14.8h7.2c-0.3,7.8-0.3,13.3-0.3,20.5c0,1.8,1,2.8,1.8,2.8
	c0.6,0,1-0.6,1-3.2V54.5c1.5-0.3,5.7-1.5,5.7-4.5c0-1.8-1.8-2.5-3.2-2.8h-2.5V25.9c0-0.6,0-1.8-0.6-1.8s-0.6,0.6-0.6,1.8
	c-0.3,5.7-0.6,15-0.6,20.8l-7.5,0.3c0-4,0.3-8.1,0-11.3v-4.2c0-1.5,0-2.5-0.6-2.5s-1,1.5-1,2.5c-0.3,4.2-0.3,9.7-0.3,15.2
	c-5.3,0.3-14.8,1-19.9,1.5c-0.6,0-1.5,0.3-1.5,0.6C299.2,50.3,300.1,50.3,300.5,50.4"/>
<path class="st0" d="M381.9,12.6l0.3,0.3c1,2.8,3.9,9.5,5.3,12.5h0.3c2.5-1.5,6.7-1.8,10.6-1.8s8.1,0.3,10.6,1.8h0.3
	c1-3.1,4-9.7,5.3-12.5l0.3-0.3l-0.3-0.3l-0.3,0.3c-1.1,2-2.2,3.9-3.5,5.7c-0.4,0.4-0.9,0.6-1.5,0.6c-0.3,0-1-0.3-1-1.5
	c-0.2-1.8-0.1-3.5,0.3-5.3l-0.3-0.3l-0.3,0.3c-0.4,1.7-1.3,3.3-2.5,4.5c-0.5,0.5-1.1,0.9-1.8,1c-0.6,0-1-0.3-1.9-1
	c-1.8-2.2-1.9-8.1-2.2-10.6l-0.3-0.3l-0.3,0.3c-0.3,2.8-0.6,8.4-2.2,10.6c-0.4,0.7-1.1,1-1.9,1c-0.9,0-1-0.3-1.8-1
	c-1-1.4-1.8-2.9-2.5-4.5l-0.3-0.3l-0.3,0.3c0.3,1.7,0.4,3.5,0.3,5.3c-0.3,0.6-0.6,1.5-1,1.5c-0.5-0.1-1-0.3-1.5-0.6
	c-1.3-1.8-2.5-3.7-3.5-5.7l-0.2-0.3L381.9,12.6"/>
<path class="st0" d="M387.9,10.1c1,0,1.8-0.8,1.8-1.8c0-1-0.8-1.8-1.8-1.8c-0.9-0.1-1.6,0.5-1.8,1.3c0,0.1,0,0.3,0,0.4
	C386.2,9.3,386.9,10,387.9,10.1"/>
<path class="st0" d="M387.3,29.8c0,2.5,6.7,2.8,10.6,2.8s10.6-0.6,10.6-2.8c0-2.5-6.7-2.8-10.6-2.8
	C393.6,26.8,387.3,27.4,387.3,29.8 M406.6,29.8c0,0.6-4.5,1.8-8.5,1.8c-4.1,0-8.5-0.6-8.5-1.8s4.5-1.8,8.5-1.8
	C402.1,28.3,406.6,28.7,406.6,29.8"/>
<path class="st0" d="M398.1,3.5c0.9,0.1,1.7-0.6,1.8-1.5c0-0.1,0-0.2,0-0.3c0.1-0.8-0.5-1.6-1.3-1.8c-0.1,0-0.3,0-0.4,0
	c-0.9-0.1-1.7,0.6-1.8,1.5c0,0.1,0,0.2,0,0.3c-0.1,0.8,0.5,1.6,1.3,1.8C397.8,3.6,398,3.6,398.1,3.5"/>
<path class="st0" d="M408.1,10.1c0.9,0.1,1.7-0.6,1.8-1.5c0-0.1,0-0.2,0-0.3c-0.1-0.9-0.8-1.7-1.8-1.8c-0.9-0.1-1.7,0.6-1.8,1.5
	c0,0.1,0,0.2,0,0.3C406.5,9.3,407.2,10,408.1,10.1"/>
<path class="st0" d="M451.9,47.6c0,4.2,0.3,11,6,11c3.1,0,5.3-3.1,5.7-4.2v4.4c0,1.5,0.3,2.8,1.9,2.8s1.9-1.5,1.9-2.8v-5
	c1.5,4.5,6.7,10.5,13.5,10.3c6.7,0,12.2-4.5,15.5-9.7l0.3-0.6l-0.3-0.3l-0.3,0.3c-4.3,3.4-9.5,5.3-15,5.3c-4.5,0-10-1.8-12.2-6.3
	c2.8,0,10-2.8,10-6.7c0-2.2-1.9-3.1-4-3.1c-2.9,0.2-5.5,1.7-7.2,4c2.2-4.2,5.6-12,5.6-17.4c0-1.9-0.3-4-2.8-4c-1.8,0-2.8,1.5-4,3.5
	c-1.5,4.9-2.3,9.9-2.5,14.9c-0.2,2.3-0.3,4.7-0.3,7c-0.3,0.7-2.2,3.5-4,3.5c-2.8,0-2.8-7.2-3.2-9.7c-0.3-1.8-1.9-2.2-3.5-2.2
	c-1,0-1.8,0.3-2.5,0.3c-0.3-0.1-0.7-0.2-1-0.3c-0.3-0.3-0.3-0.6-1-0.6s-1,0.3-1,1.5s0.3,1.5,1,1.5l0.3,0.3c0,1-2.2,9.2-5.3,9.2
	c-1.9,0-3.2-5-3.5-8.5c0-0.3-0.3-0.6-0.6-0.6c-0.3,0-0.3,0.3-0.6,0.6c-1.8,3.5-5,8.5-7,8.5c-1.5,0-1.8-0.7-1.8-2.2
	c0-3.1,3.5-8.4,7.8-8.4c0.8,0,1.7,0.1,2.5,0.3l0,0l0.3-0.3c0-1.5-2.5-1.5-3.1-1.5c-8.1,0-12.8,6.3-12.8,10.6c-0.3,0.6-1,2.2-2.5,2.2
	c-2.2,0-2.8-6.7-3.2-8.4c-0.3-1.5-1-3.2-2.5-3.2c-1,0-1.8,1.5-2.2,2.2c-0.6,2.2-1.8,5.6-2.5,7.8l-0.3,0.6l-0.3-0.6
	c-0.3-1.5-1.5-5.7-1.9-7.2s-1-2.8-2.5-2.8c-1,0-1.9,1.5-2.2,2.5c-0.7,2.5-1.5,5-2.5,7.5l-0.3,0.6c-0.3,0-0.3-0.3-0.6-0.6
	c-0.6-1.8-1.5-5.6-1.9-7.2c-0.3-1.5-1-2.5-2.5-2.5c-1,0-1.9,1.5-2.5,2.5c-1,3.1-3.5,9.2-6.7,9.2c-1.9,0-3.1-1.5-4-3.1
	c2.5-4,5.3-9.5,5.3-14.8c0-3.5-0.6-6.7-4-6.7c-4,0-7.2,6-7.5,13.5c0,4.2,0.6,7.5,2.2,9.7c-1,1.5-2.5,1.8-4.5,1.8
	c-2.5,0-4.8-1.3-6-3.5c2.5-3.5,5-9.5,5-14.5c0-3.5-0.3-7-4-7c-4.6,0-7.2,6-7.5,13.5c0,4,1,7.5,2.5,9.5c-0.8,1.2-2.1,1.9-3.5,1.8
	c-3.5,0-5.3-5.7-5.6-9.5c0-0.3-0.3-0.6-0.6-0.6c-0.3,0-0.3,0.3-0.6,0.6c-1.8,3.5-5,8.5-7,8.5c-1.5,0-1.8-0.7-1.8-2.2
	c0-3.1,3.5-8.3,7.8-8.3c0.8,0,1.7,0.1,2.5,0.3h0.3l0.3-0.3c0-1-2.5-1.5-3.1-1.5c-8.1,0-12.7,6.3-12.7,10.8c0,2.2,1,4.5,4.5,4.5
	c1.8,0,2.8-0.6,4.5-1.9c1-1.5,2.5-2.2,2.8-3.1l0.3-0.3l0.3,0.3c0.9,3,3.6,5,6.7,5c2.6-0.1,5.2-1.2,7-3.1c1.9,2.1,4.6,3.3,7.5,3.1
	c2.6-0.2,5-1.1,7-2.8c1.3,1.8,3.4,2.8,5.6,2.8c2,0.1,4-0.7,5.3-2.2c1.5-1.8,2.7-3.8,3.5-6l0.3-0.6l0.3,0.6c0.2,1.7,0.5,3.4,1,5
	c0.3,1.8,1,3.5,3.5,3.5c1.8,0,2.8-1.9,3.5-4.2c0.6-1.8,1-3.2,1.5-4.2l0.3-0.6l0.3,0.3c0.3,1.5,0.6,3.1,1,5c0.3,1.8,1,3.5,3.2,3.5
	c1.8,0,2.8-1.9,4-4.2c0.3-1.2,0.8-2.4,1.5-3.5l-0.7-0.3l0.3,0.3c0.3,1.5,0.3,3.1,1,4.2c0.4,2.2,2.3,3.7,4.5,3.5
	c1.1,0,2.1-0.6,2.8-1.5c0.8-0.4,1.5-1.1,1.9-1.9c0.3,1.9,2.1,3.3,4,3.1c1.8,0,2.8-0.6,4.6-1.9c1-1.5,2.5-2.2,2.8-3.1l0.3-0.3v0.3
	c1,2.8,2.5,5,5.6,5c5.6,0,7.8-9.2,8.5-12.5c0.5-0.2,1-0.3,1.5-0.3c-2.2,0.6-1.9,1.2-1.9,2.6 M468.2,30.1c0.3-1.8,1-2.8,1.9-2.8
	c0.6,0,1,1,1,2.8c0,4.2-2.5,11.7-4.5,15.2C467.5,41.3,467.5,33.9,468.2,30.1 M469.7,47.7c0.6-0.6,2.2-1.9,3.1-1.9c0.6,0,1,0.3,1,1.5
	c0.1,1.3-0.6,2.5-1.8,3.1c-1.1,1.4-2.8,2.3-4.5,2.2l-0.6-0.6C467.4,50.3,468.3,48.8,469.7,47.7 M365.2,42.1c0-4.2,0.6-10,3.1-10
	c1.9,0,1.9,3.1,1.9,5.3c-0.2,4.4-1.4,8.6-3.5,12.4C365.5,48.4,365.2,45.6,365.2,42.1 M379.8,42.1c0-4,0.6-10,3.1-10
	c1.9,0,1.9,3.1,1.9,5.3c-0.2,4.6-1.6,9.1-4,13C380.1,47.6,379.8,44.8,379.8,42.1"/>
<path class="st0" d="M415.8,10.4c0.9,0.1,1.7-0.6,1.8-1.4c0-0.1,0-0.2,0-0.3c-0.1-1-0.9-1.7-1.9-1.6c-0.9,0.1-1.6,0.8-1.6,1.6
	C413.9,9.8,415.1,10.4,415.8,10.4"/>
<path class="st0" d="M306,230.6c-3.5,3.8-8.3,6.7-12.9,7.3c2.4-4.5,5.2-8.8,8.4-12.9c3.2-3.8,8.9-9.7,12.2-8.8
	C313.6,216.3,313.6,222.6,306,230.6z M405.6,153.1c-1.1,0.9-2,2.1-2.6,3.4c-1.9,3.2-9.7,20.7-10.2,21.4c-1,0.4-13.9,3.5-17.7,4.2
	c-7.3,1.6-13.8,2.8-21.2,3.8c-7.2,0.9-14.8,0.9-21.5-1.6c-2.8-1-5.7-2.9-6.3-5.7c-0.3-1.8,0-3.7,1-5.3c0.9-1.5,4.4-3.7,3.5-4.4
	s-1.9,0.1-2.8,0.4c-2.2,0.8-3.9,2.4-5,4.4c-2,2.6-1.3,6.7,0.6,9.5s6.6,8.1,24.2,8.1c4.5,0,8.9-0.4,13.3-1.2
	c5.3-0.9,10.6-2.1,15.8-3.5c2.6-0.7,5.3-1.5,7.8-2.2c1.3-0.4,5.9-1.5,6.6-1.9c-1.8,5.1-4.1,10.4-6.2,15.4c-0.9,2.4-1.9,4.5-2.8,6.9
	c-1.6,4.6-3.8,8.9-6.4,13c-6.4,10.1-11.4,21.8-20.5,30c-1.3,1.2-5.3,4.5-7.2,2.9c-1.8-1.3-1.6-2.5-1-4.8c2.1-7.3,7.3-13.3,11-19.9
	c1.3-2.2,2.2-4.6,2.6-7.2c0.3-2.8-0.4-6.4-3.2-7.6c-4.8-1.9-10,2-11.6,3.4c-7,5.7-13.3,12.3-18.8,19.5c1.8-5.9,10.3-17.7,10.7-21.5
	c0.1-0.9-0.7-1.8-1.8-2c-0.6-0.2-1.3-0.2-1.9,0.1c-3.7,1.6-14.2,26.5-16.4,29.7c-2.5,3.8-17.9,21.1-25.6,20.4
	c-4.1-0.4-4.7-4.5-4.7-6.5c0.1-2.6,0.7-5.2,1.6-7.6c0.3-0.6,2.5-5.3,2.6-5.3c8.2-1.2,13.6-6.2,15.8-8.2c2.7-2.5,4.9-5.5,6.6-8.8
	c0.9-1.7,1.7-3.4,2.2-5.3c1-3.8-1.2-6.3-5-6.7c-5.4-0.7-13,6.4-17.2,11.3c-10.7,12.3-13.3,27.4-12,32.1c1.2,3.8,3.8,6.9,7.8,7.8
	c4.2,1,9.8-2.2,13.2-4.7c4.4-3.4,8.4-7.1,12.2-11.1c-1,2.9-2,5.3-2.2,5.6c-0.6,1.5-1.8,4.6,0.3,5.6c0.7,0.3,1.5,0.4,2.2,0.3
	c1.2-0.3,3.7-5,6.9-12.3c3.1-7,11.3-16.4,16.4-22.1c2.5-2.6,5.2-4.9,8.2-7c1.4-1.1,3-2.1,4.5-2.9c1.3-0.6,4.4-2,4.4,0.6
	c-0.2,1-0.6,1.9-1.2,2.8c-3.2,5.1-6.2,10.3-9.4,15.4c-1.5,2.6-2.8,5.4-3.8,8.2c-0.9,2.6-2,11.4,6.5,12.5c2.1,0.2,4.2-0.4,5.9-1.8
	c4.3-3.4,8.1-7.5,11.1-12c1-1.5,10-15.8,11.3-17.7c-0.9,3.7-2.3,8.9-2.8,11c-0.6,2.7-0.8,5.6-0.6,8.4c0.6,10.3,8.8,18,19.3,14.8
	c3.7-1,6.7-4,8.8-6.9c1.2-1.6,2.2-3.4,2.8-5.3c0.3-0.9,1.5-3.5,0.9-4.2c-0.6-1-2,1.8-2,2.2c-2.2,3.2-4.6,6.2-7.3,8.9
	c-1.9,2-5.6,3.8-8.5,3.5c-16.4-1.3-5.1-31.6-2.3-39.6c2.6-7.5,5.7-14.8,8.9-22.1c1.2-2.6,4.7-11.6,5.3-11.7c2.8-1,9.5-2.1,11.9-2.5
	c16.3-3.4,26.8,0.7,30.8,3.7c5.6,4,6.3,10.4,5.6,14.5c1.3,1.5,3.7-2.5,3.5-6.7c-0.3-9.5-10.1-15.5-25.1-16.1
	c-8.3-0.3-16.7,0.6-24.8,2.5c0.3-0.7,6.2-14.6,7.5-18C408.7,157.2,409.7,150.4,405.6,153.1L405.6,153.1z"/>
<path class="st0" d="M71.4,182c5.6,1,9.5,3.4,12.2,9.5c5.9,13.8,0.4,35-4.1,48.4c-5,15.2-12.2,29.6-21.4,42.6
	c-7,10.1-15.2,20.7-25.5,27.7c-4.3,2.9-9.5,5-14.7,3.8c-6.9-1.6-10.3-10.5-11.3-17.7C6,290,6.5,283.7,7.9,277.5
	c0.6-2.6,1.4-5.1,2.3-7.6c1.5,1.2,3.2,2.3,5,3.2c2.3,1,4.8,1.6,7.3,1.8c15.2,0.1,29.2-13.2,34.4-27c0.3-0.9,1-2,0.7-2.9
	c-0.2-0.3-0.2-0.4-0.3-0.4c-0.7,1-1,2.2-1.8,3.2c-5.1,7.5-12.3,14.8-20.4,19.2c-4.1,2.2-8.8,4-13.5,3.7c-2.8-0.1-9.2-2.8-9.4-6.4
	c0.4-2.2,3.4-8.4,8.6-18.2c3.3-6,7.2-11.6,11.6-16.8c4.5-5.7,9.5-11.1,14.9-16c5.1-4.5,11.9-10.4,18.6-12.2c3-1,6.3-0.7,9.1,0.7
	c-0.3-0.1,1.2,1.9,1.2,2.1c0,0.6,0.3,0.6,0.7,0.3c0.5-0.6,0.6-1.4,0.1-2.1c-0.1-0.2-0.2-0.5-0.3-0.7c-2.3-4.4-9.7-4.8-13.9-3.7
	c-2.1,0.5-4.2,1.1-6.2,2.1c-5.8,2.6-11.2,6.1-16,10.4c-6.7,5.8-12.7,12.3-17.9,19.5c-2.9,4-5.6,8.1-8.1,12.3
	c-3.5,6.6-7.6,16.1-8,16.6c0.1-0.3-1.2-3.2-1.2-3.7c-1.5-6.1,0.3-12.8,2.3-18.6c2.2-6.2,5.2-12.2,8.8-17.7
	C23.4,209.2,31,201,39.7,194C44.9,190.2,59.5,179.8,71.4,182z M67.1,177.7c-13.5,0-27,8.5-37.1,16.9C17.3,205.3,5.9,221,1.5,237.2
	c-1.1,4.1-1.6,8.3-1.5,12.6c0.2,3.5,1.3,9.7,5.1,13.6c-1.8,4.8-3,9.8-3.8,14.9c-2.2,12.2-2.2,31.6,10.5,38.4
	c7.6,4.1,18.3,0.7,24.8-4.2c23.4-18.2,43.2-53,51.1-84.7c2.3-9.4,3.8-20.2,2.2-29.9c-1-6.6-3.8-12.4-9.2-16.3
	C76.8,178.8,72,177.7,67.1,177.7z"/>
<path class="st0" d="M351.7,284.5c-0.4-2.5-2.3-4.2-5.4-5.4s-10.1-1.3-13.3-0.9c-15.2,1.5-27,6.2-40.7,13c-2.6,1.3-8.4,4.5-10.7,5.4
	c-1.9-1.1-3.7-2.4-5.3-4c-5.1-4.8-8.3-11.2-9.1-18.2c-0.9-7,0.4-14.4,2.8-21.1c2.3-6.7,5.6-13.2,8.5-19.6c1-2,1.7-4.1,2-6.3
	c0.4-3.1-1.5-7.2-4.5-7.6c-7.6-1.3-17.1,10.8-20.1,15.5c0.7-2.9,1.3-9.2-1.9-11.6c-1.9-1.2-4.2-1.4-6.3-0.6
	c-1.7,0.8-3.4,1.8-4.8,3.1c-2.9,2.5-5.7,6.3-8.2,9.4c-0.7,0.9-6.7,8.9-7.8,10.7c-0.2,0,4.1-9.1,5.3-12c0.9-2.3,4-7.2,2.9-9.7
	c0,0-0.4-2-3.2-1c-1.8,0.6-2.3,2-2.9,3.7c-1.3,3.4-2.8,6.6-4.1,10c-4.8,11.6-8.9,23.7-18.2,32.8c-1.9,1.9-5.3,2.6-5.7-0.6
	c-0.2-2.1,0.1-4.2,1-6.2c3.3-9.8,7.2-19.3,11.7-28.6c0.6-1.2,1.3-3.4,1-4.5c-0.3-1.2-1.4-1.9-2.6-1.7c-0.1,0-0.1,0-0.2,0.1
	c-1.9,0.4-3.1,2.2-4,3.8c-0.3,0.6-1.9,3.8-1.9,3.2c-0.1-4.1-6.9-6.3-11.3-4.2c-6.4,2.9-11.9,9.2-15.5,15c-3.2,5.2-5.8,10.8-7.6,16.7
	c-0.8,2.8-2.3,5.4-4.2,7.6c-2.2,2.6-4.2,5.7-6.6,8.2c-1.5,1.8-4.7,4-6.6,1.8c-1.5-1.9-0.7-5.7-0.2-7.8c2.3-7.6,7.2-14.6,10.7-21.7
	c2.3-5,5-11,3.1-16.5c-1-3.4-3.2-5-5.6-4.7c-10.1,1.3-23.8,24.3-28.7,33.2c0.7-1.5,9.5-22.9,10.4-27.7c-0.1,0.3,0.6-5.4-4.1-3.4
	c-1.2,0.6-2,4.1-2.5,5.4c-1.9,4.8-3.2,9.8-5.1,14.6c-1.8,4.4-2.6,8.4-4.5,12.8c-1.6,3.4-3.5,6.7-5.7,9.8c-2.5,3.5-6.7,8.2-10.7,10.3
	c-4.2,2.2-5.9-0.9-5.4-5c0-0.4,0.1-0.7,0.1-1c1.8-9.2,6.7-17.4,10-26.1c1.3-2.9,1.8-6.1,1.3-9.2c-0.6-3.7-3.2-6.6-6.9-6.9
	c-1.3-0.1-3.1,0.1-4.2-0.3c0.9-2.2,2.2-6,2.2-9.1c0.1-1.3-0.2-2.6-1-3.7c-1.5-1.5-4.8-1-6.2-0.3c-2.4,1.5-4.1,3.9-4.7,6.7
	c-0.6,2.8-0.1,5.8,1.5,8.2c1,1.4,2.1,2.7,3.4,3.8c-2.1,6.5-4.7,12.9-7.8,19c-5.9,11.7-7,14.5-15.7,26.2c-0.7,1-4.4,3.1-2,4.1
	c4.8-1.2,7-5.4,8.5-7.2c8.5-11.6,14.4-25.2,19.2-38.2c0.7-1.9,0.4-1.8,1.2-2.9c0.9,0.3,7.6-1.9,8.3-1c-0.7,5.1-3.7,12.6-5.9,17.1
	c-2.3,4.5-4.8,10.4-5.7,15.4c-1,5.9-1,13.2,6.2,14.4c2.2,0.3,4.5-0.9,6.6-2c2.8-1.6,8.3-7.9,9.5-9.2c0,0.3-3.7,6.7-3.2,7.6
	c0.9,1.6,1.8,2.8,3.5,2.2c2-0.7,5.1-9.7,14.7-26.5c3.5-6,7.3-11.8,11.4-17.4c2.9-4,10.2-12,13.3-10.7c1.6,0.7-1,8.4-1.3,9.2
	c-1.5,4-3.4,7.8-5.7,11.4c-2.8,4.6-5.7,9.8-7.2,15c-1.8,5.7-1.8,14.6,5.7,15.8c4,0.6,7.6-2.3,10.3-5.6c2.2-2.6,4.2-5.3,6-8.2
	c0.4,3.7,0.7,5.1,2.6,7s2.8,2.2,5.3,2.2c7.2-0.1,14.8-11.3,16.8-14.6c-0.3,2.6,1.8,10,7.5,10c0.7,0,3.7,0.4,10.1-7.8
	c-0.6,2.3-0.9,3.2-0.4,5c0.2,0.5,0.4,0.9,0.7,1.3c0.9,0.6,1.2,0.4,2.2,0.1c1.8-0.6,2.6-2.6,2.9-4.1c1.5-4.3,3.3-8.5,5.4-12.6
	c2-3.5,3.8-6.3,5.4-8.6c4-5.9,15.2-22.4,20.5-22.7c0.9-0.1,2.2,1.5,1.8,3.7c-0.9,3.7-1.3,7.2-2.8,10.5c-2.5,6.1-6.5,13.8-9.7,22.1
	c-0.8,1.4-1.3,2.9-1.6,4.4c-0.3,1.2,0.4,2.5,1.6,2.9c1.3,0.6,2.3-0.1,3.4-1.2s2.5-6,3.2-7.3c3.5-7.3,4.4-9.8,8.5-16.9
	c4-7,9.8-15.1,16.1-19.9c0.8-0.6,1.8-1.1,2.8-1.5c4.7-0.9,1.2,5.9,0.3,7.5c-2.7,5-5.2,10.1-7.3,15.4c-3.4,8.5-5.9,16.4-4.5,25.6
	c1.3,9.1,5.7,18.8,12.9,24.9c1.5,1.1,3,2.4,4.4,3.7c-1.6,1-10.5,5.6-13.5,7.2c-4.7,2.5-9.5,5-14.2,7.2c-9.8,4.8-19.6,9.4-29.7,13.5
	c-19.9,8-39.7,14.9-61.2,16.5c-4.7,0.4-10.7-0.4-15.4-1.5c-4.5-1-9.1-3.2-12-6.9c-2.3-2.8-4-7.6-4.5-11.3s0.7-6.9-0.1-10.1
	c-5,5.1-3.4,15.1-0.2,20.7c3.5,6.1,9.8,10.4,16.6,12.7s13.5,2.4,20.5,2.1c24.2-1.2,46.4-11.6,68.9-20.7c14.7-5.9,47.8-24,50.3-25.8
	c1.5,0.9,7.9,2.5,10.8,3.1c3.4,0.6,6.9,1,10.4,1.2c6,0.2,11.9-0.3,17.7-1.6c6.3-1.5,12.8-3.4,18.5-6.6
	C345.5,296,352.7,290.8,351.7,284.5z M102.2,235.8c-1.5-0.3-2.3-2.6-2.3-4.1c-0.2-3.7,1.9-6,4.5-5.3
	C104.1,229.6,103.4,232.8,102.2,235.8z M201.2,246.8c-0.6,1.3-5,11.7-9.4,18.3c-1.8,2.8-4,5.4-6.4,7.6c-2.1,1.6-5.9,4.8-8.4,2
	c-1.9-2.2,0-7.9,0.6-10.3c0.9-3.2,2.8-7.5,6.5-14.4c4.2-8.4,12.2-16.9,16.5-16.1c1.3,0.3,2.9,1.3,2.8,4.1
	C203.2,241.1,202.4,244,201.2,246.8L201.2,246.8z M347.9,285.8c-0.4,2.8-3.5,6-5.9,7.5c-14.5,10.1-37.4,13.3-54.1,6.9
	c-0.3-0.1,7.3-4.7,10-6.1c7.8-4.4,18.6-9.7,27.2-11.6C329.6,281.3,349,278.2,347.9,285.8L347.9,285.8z"/>
<path class="st0" d="M714.3,157.1c-0.3,0.2-0.6,0.4-0.7,0.7c-1.1,2.2-2,4.4-2.6,6.7c-1.8,5.7-10,30.6-10.1,30.9s-0.6,0.3-1.2,0.4
	c-3.2,0.9-13.5,2.9-16,3.2c-1.9,0.1-3.7,0-5.6-0.3c-2.3-0.4-4-2.4-4.2-4.7c-0.2-1.3,0.2-2.5,1.2-3.4c0.6-0.6,0.7-0.9,0.7-1.3
	s-0.4-0.9-1-0.9s-1.5,0.7-2.2,1.6c-1.2,1.5-1.8,3.4-1.6,5.3c0.2,3.2,2,5.6,5.6,7.3s9.2,1.8,19.6-0.3c1.3-0.3,2.5-0.4,2.5-0.4
	s-0.6,2.2-1.5,4.8c-6.6,20.4-6.6,20.5-10.1,28.4c-4.2,9.7-6,13.5-6,13.6c-0.3,0.7-3.4,6.3-4.7,8.6c-1.9,3.5-2.8,4.8-4.4,6.5
	c-1.8,1.8-2.5,2.2-4,2.2c-0.7,0.1-1.4-0.1-1.9-0.6c-1-0.6-1.6-1.7-1.6-2.9c-0.3-1.9-0.1-1.8,1.8-7.9c0.7-2.3,2.2-6.7,3.1-9.7
	c0.5-1.9,1.2-3.8,1.9-5.6c0.2-0.1,1.3-3.7,4.1-12.6c0.4-1.2,1.3-2.8,0.6-4c-1-1.5-3.8-1.3-5-0.1c-0.4,0.4-0.6,0.7-1.2,2.5
	c-0.2,0.8-0.5,1.6-0.9,2.3c-0.2,0.1-1.9,6-4,12.8s-4,12.9-4.2,13.5c-1.5,3.3-3.2,6.5-5.3,9.5c-3.1,4.8-4.7,6.5-6.9,7.3
	c-1.7,0.6-3.5,0.4-5-0.6c-0.7-1-1-2.2-0.9-3.4c0.5-3.1,1.3-6.1,2.3-9.1c0.6-2.1,2-6.3,2.9-9.2s1.8-5.7,1.9-5.9s1.8-5.1,4-12.3
	c0.4-1,0.6-2,0.9-3.1c-0.3-1-1.2-1.7-2.2-1.8c-1.1-0.2-2.3,0.1-3.1,0.9c-0.4,0.4-0.6,0.7-1.2,2.5c-0.2,0.8-0.5,1.6-0.9,2.3
	c-0.2,0.1-1.9,6-4,12.8s-4.2,13.8-5,15.5c-1.6,4.7-2.2,7.3-1.9,10.1c0.1,2.5,0.7,4,2.2,5.3c1.4,1.4,3.3,2.1,5.3,1.9
	c2.1-0.4,4-1.3,5.7-2.6c2.7-2.3,5-4.9,6.9-7.9l1.5-2.2l0.3,0.3c0.1,2.8,0.7,4.2,2.2,5.6c1.5,1.4,3.5,2.1,5.6,1.9
	c1.7-0.1,3.2-0.7,4.6-1.8c3.4-2.2,5.7-5.3,8.8-11.7c2.5-5,3.8-7.3,4.1-8.1c0.2-0.3,0.3-0.7,0.4-1l0.3-0.4l-0.3,1.3
	c-0.8,3.4-1.1,6.8-0.9,10.3c0.3,6.5,2,12.9,5,18.8c0.6,1,1.6,3.5,1.6,3.5s-1.3,1.2-2.8,2.6c-12.9,11.6-25.2,20.6-37.2,27.5
	c-18.8,10.7-35.9,15.5-49.2,13.5c-2.2-0.3-6-1.9-7.5-2.5c-5.1-2.2-9-6.6-10.6-12c-0.4-2.2-0.2-4.4,0.6-6.4c0.2-0.4,0.6-1,0.9-1.6
	c0.7-1,0.7-1.6,0.3-2c-0.6-0.6-1.2-0.4-1.9,0.3c-1.8,2.3-2.8,5.1-2.8,8.1c0,6,4.2,12.2,11.3,16.1c2.4,1.4,4.9,2.5,7.5,3.4
	c5.5,1.5,11.2,1.9,16.8,1.2c21.5-2.5,48.8-16.9,73.1-38.2c1.3-1.2,2.6-2.3,2.9-2.5s0.9-0.7,1.5-1.2c0.3-0.3,0.6-0.6,1-0.7
	c0.4,0.4,0.7,0.8,1,1.2c8.5,10.4,21.2,18,35,21.1c4.5,1.1,9.1,1.5,13.8,1.3c6.6,0,13.1-1.1,19.3-3.2c14.4-4.8,26.1-15.7,30.5-28.4
	c1.7-5.1,2.4-10.5,2-15.8c-0.7-6.2-3.4-12.2-7-15.8c-1.5-1.5-3.3-2.8-5.3-3.8c-7.5-3.8-21.2-3.8-33-0.1c-2.5,0.7-7.5,2.6-10.6,4
	c-13,5.6-27.8,17-42.3,28.9c-1,0.9-2.1,1.6-2.2,1.8c-0.4,0.3-3.2-6.9-4-10.4c-1-3.7-1.3-7.6-0.9-11.4c0.4-6.7,0.7-8.1,9.5-34.7
	l7-21.7l2.9-0.9c3-0.9,6-1.6,9.1-2c3-0.3,6-0.3,8.9,0c4.1,0.7,6.6,2.2,7.5,4.1c0.7,1.6,0.3,2.9-1.3,4.5c-0.9,0.9-1,1.3-0.6,1.9
	s0.9,0.6,1.8,0c1.8-0.9,3.1-3.5,3.1-5.9c-0.1-1.1-0.4-2.1-0.9-3.1c-2.3-4.1-7.2-6.3-11.7-6.9c-4.7-0.6-9.5-0.2-14.1,1
	c-2.8,0.7-2.6,0.7-2.6,0.4c0.3-0.7,7.8-24,8.3-25.5c2.1-6.6,2.2-7.5,0.9-9.1C716.5,157.2,715.3,156.6,714.3,157.1z M775.3,244
	c5.6,0.9,9.5,3.2,11.7,6.7c2.3,3.8,3.4,9.7,2.6,16c-0.7,6.8-3,13.3-6.7,19c-6.5,9.7-16,17.1-27.1,20.8c-3.7,1.3-7.6,2-11.6,2
	c-2.9,0.3-5.9,0.3-8.8,0c-2-0.2-4-0.7-5.9-1.3c-12.1-3.7-22.7-11.1-30.3-21.2c-0.5-0.6-1-1.3-1.5-2l-0.3-0.4l1.2-1
	c0.7-0.6,2-1.8,3.2-2.8c1.9-1.8,7.5-6.6,9.1-7.9c4.2-3.5,11.7-9.1,17.4-12.9c8.8-5.9,19.9-11.4,27.1-13.5c3.1-0.9,6.3-1.5,9.5-1.9
	C767.4,243.5,773.5,243.7,775.3,244L775.3,244z"/>
<path class="st0" d="M650.6,161.6c-2.8,0.5-5.4,1.6-7.8,3.2c-2.7,1.9-5.2,4.2-7.3,6.7c-1.3,1.8-5.4,7.8-7,10.6
	c-4.2,7.1-7.9,14.5-11.3,22c-1.5,3.2-3.7,8.5-4.2,9.8c-0.3,0.9-0.3,0.9-2.3,1c-4.7,0.6-8.8,0.3-12.2-1c-7.2-2.6-11.7-8.1-13.3-15.7
	c-0.6-3.2-0.5-6.4,0.3-9.5c1.8-8.5,7-16,12.6-17.6c2.2-0.6,3.7-0.6,5.1,0.1c0.7,0.4,1.2,0.3,1.3-0.3s-0.2-1.2-1.2-1.8
	c-1.9-1.1-4.1-1.5-6.3-1c-2.7,0.8-5.1,2.2-7,4.2c-4.2,4.4-6.9,10.1-7.8,16.1c-0.4,3.4-0.2,6.9,0.4,10.2c0.8,3,2,5.9,3.8,8.5
	c1.7,2.2,3.7,4.2,6,5.7c4.8,3.2,10.6,4.8,16.4,4.5h2.5c0,0-0.3,0.9-0.7,1.9c-3.7,9.4-7.2,18.9-11.9,33.7c-0.9,2.8-6,10.8-10.6,16.4
	c-5.3,6.6-11.4,12.3-15.5,14.2c-1.9,1-4.1,1.2-6.2,0.6c-1.5-0.4-2.5-2.2-2.9-4.5c-0.3-2.4-0.2-4.8,0.3-7.2c0.7-4.2,2.8-9.8,3.5-10
	c0.3,0,0.6,0,0.9,0.1c1.7,0.3,3.3,0.3,5,0c6.7-1.5,13.3-6.6,17-13.5c3.2-6.1,3.1-11.7-0.2-13.3c-0.7-0.4-1.4-0.6-2.2-0.4
	c-0.9,0-1.8,0.1-2.6,0.3c-2.5,0.9-4.9,2.1-7.2,3.5c-7.3,4.8-14.4,14.9-17.7,25.3c-2.6,7.9-2.8,13.9-0.6,18.5
	c1.3,2.9,4.1,4.8,7.3,4.8c2.9,0,6.9-1.6,10.2-4.1c6-4.5,11.1-10.1,16.8-18.3c0.9-1.3,1.6-2.2,1.5-2s-0.7,2.5-1.5,5.1
	c-2.5,8.6-4,14.2-4,15.1c-0.1,1,0.5,1.9,1.5,2.2c1.8,0.5,3.7-0.1,4.8-1.5c0.4-1.1,0.8-2.3,1-3.5c0.4-1.8,1-3.7,1.2-4.4l0.3-1.2
	l0.3,1c1.5,4.7,5,7.3,9.4,7c1.8-0.1,3.6-0.6,5.3-1.5c2.4-1.2,4.6-2.9,6.4-4.8c3.8-3.8,6.2-7.5,9.1-14.1c2.5-5.3,3.9-11,4.1-16.9
	c0.2-3.5-0.3-7-1.6-10.2c-1.5-3.5-4.6-6.5-7.5-7.3c-1.2-0.3-2.3-0.3-3.5-0.1c-3.2,0.8-6.1,2.5-8.2,5c-0.6,0.6-1,1-1,0.9
	s0.9-2.2,1.8-4.5s2.2-5.7,2.8-7.5s1.5-3.7,1.8-4.4s0.4-1.3,0.6-1.3c0.6-0.2,1.2-0.3,1.8-0.4c10.5-2.8,20-8.4,27.7-16
	c4.8-4.8,9.2-10.7,11.6-17.3c1.9-5.3,3.4-15.7-2.1-19.5C655.7,161.7,653.1,161.1,650.6,161.6z M656,165.6c1.4,0.7,2.4,2,2.6,3.5
	c0.2,1.9,0.2,3.7,0,5.6c-0.5,3.2-1.5,6.4-3.1,9.2c-6.2,12.6-19.6,24.2-33.2,28.6c-1,0.3-1.8,0.6-1.9,0.6s2.3-5.7,4.4-10.4
	c8.2-18.3,16.3-31.2,21.5-34.9c1.8-1.2,3.8-2.1,5.9-2.5C653.5,165,654.8,165.1,656,165.6L656,165.6z M624.5,231.5
	c4.1,1.9,5.4,9.7,3.5,19.3c-2.8,13.3-11.1,26.1-18.9,28.7c-0.7,0.2-1.5,0.3-2.2,0.3c-0.8,0.1-1.5,0-2.2-0.4
	c-1.4-0.7-2.5-1.9-3.1-3.4c-0.8-1.6-1.2-3.4-1-5.1c0-1.2,0.2-2.4,0.6-3.5c1.8-6.1,4.5-15.1,6.6-21.1c1.1-3.6,2.9-6.8,5.3-9.7
	C616.8,232.1,621.4,230,624.5,231.5L624.5,231.5z M589.2,240.2c0.5,0.5,0.8,1.2,0.7,1.9c-0.2,2.3-0.8,4.5-1.9,6.5
	c-3.4,6.5-10.1,11.7-16.4,12.5c-1.1,0.1-2.3,0.1-3.4-0.1c-0.3-0.1,1.6-4,3.5-6.9c2.9-4.4,6.5-8.2,10.7-11.3
	C585.5,240.4,588.3,239.4,589.2,240.2L589.2,240.2z"/>
<path class="st0" d="M545.1,180.7c-5.6,0.9-10.6,3.5-15.5,8.4l-1.3,1.3l-1.6-0.6c-9.7-3-20-3.6-30-1.9c-10.4,1.7-20.2,5.6-29,11.4
	c-13.3,8.9-25.5,24.6-24.3,41.5c0.7,9.7,6,19.9,16,22.3c16.6,4,31.9-10,31.9-26.5c0-1.3-0.1-2.6-0.4-3.8c-1.6-6.2-5-10.9-10-13.3
	c-1.1-0.6-2.4-1.1-3.7-1.3c-0.7,0.1-1.3,0.5-1.5,1.2c-0.1,0.7,0.2,1.2,1,1.5c1.3,0.3,2.5,0.8,3.7,1.3c5.4,3.2,7.5,11,5.3,19.6
	s-8.7,16.3-15.5,18.6c-1.9,0.7-4,1-6,0.9c-2.6,0-5.2-0.7-7.5-2c-2.1-1.2-3.8-3-4.8-5.3c-1.9-4.1-2.9-8.5-2.9-13
	c-0.1-1.7,0-3.4,0.3-5c0.8-5.1,2.6-10,5.3-14.4c6.4-11,18-20.4,31.5-25.8c10.7-4.3,22.3-5.8,33.7-4.2c2.1,0.3,4.2,0.8,6.3,1.3
	c0.1,0.1-0.2,0.6-1.2,1.9c-2.2,3-4.2,6.2-6,9.5c-1.2,1.9-10.4,20.5-11.6,23c-1.3,2.9-9.4,18.9-26.8,52.7c-3.5,6.7-6.6,12.9-7.2,13.8
	s-1,1.9-1.3,2.5s-0.6,1-0.7,1c-2-0.3-4-0.4-6-0.3c-5.7,0.3-9.8,1.8-12.7,4.8c-1.5,1.4-2.4,3.2-2.8,5.1c-0.1,0.8-0.1,1.7,0,2.5
	c0.6,3.2,2.3,4.8,5.6,5.7c2.1,0.4,4.2,0.3,6.3-0.1c5.6-1.6,11.3-6.6,14.5-12.3c0.4-0.9,0.9-1.6,0.9-1.6s1.3,0.3,3.1,0.6
	c4.7,1.1,9.5,1.8,14.4,2c3.5,0.2,7,0,10.4-0.6c16.7-2.8,33.3-14.9,43.4-31.5c4.7-8,8.1-16.7,9.8-25.8c1.2-6.7,1.2-13.6,0-20.4
	c-2.8-14.8-10.8-26.4-22.9-32.4c-1.8-0.9-1.8-0.6,0.3-2.8c3.7-4.1,8.8-7.2,14.4-7.3c5.1-0.1,11.1,2.8,12.5,8.1c0.3,1.3,0.3,2.7,0,4
	c-0.2,0.9,0,1.5,0.6,1.8c1,0.3,1.5-0.6,1.6-2.9c0.1-1.6-0.1-3.1-0.7-4.5c-1.2-2.9-2.9-4.8-7-7.2c-1.5-0.7-3-1.2-4.5-1.5
	C549.7,180.3,547.4,180.4,545.1,180.7z M533.5,195c3.3,1.7,6.2,3.9,8.8,6.6c6,6.2,9.5,14.1,10.7,23.9c0.4,4.5,0.4,9.1,0,13.6
	c-1.4,10.6-5.2,20.8-11,29.9c-0.4,0.7-1,1.6-1.2,1.9c-1.4,2.1-2.9,4.1-4.5,6c-2.8,3.3-5.9,6.3-9.1,9.2c-7.8,6.6-16.3,11.4-24.2,13.5
	c-2.8,0.8-5.7,1.2-8.6,1c-3.5,0.1-7-0.1-10.4-0.7c-1.8-0.3-3.6-0.7-5.4-1.3c-0.3-0.3,46.2-92,49.7-98c1.2-2.2,2.5-4.4,4-6.4
	C532.1,194.4,532.8,194.7,533.5,195L533.5,195z M470.2,299.4c0.2,0.1-1,2.4-2.3,4.2c-1.5,2.1-3.2,4-5.1,5.7
	c-1.9,1.5-4.2,2.4-6.6,2.6c-1,0.1-2.1-0.2-2.8-1c-1.1-1-1.4-2.7-0.7-4c1.3-3.8,5.7-7,10.7-7.6C465.6,299.2,467.9,299.2,470.2,299.4
	L470.2,299.4z"/>
<line class="st1" x1="595.8" y1="405.4" x2="655.1" y2="405.4"/>
<line class="st1" x1="140" y1="405.4" x2="199.3" y2="405.4"/>
<path class="st0" d="M223,403.4L223,403.4c0.2-9.8,8.2-17.5,18-17.3c9.4,0.2,17.1,7.7,17.3,17.2v0.1c-0.2,9.8-8.3,17.5-18.1,17.2
	C230.8,420.4,223.3,412.8,223,403.4z M252.2,403.4L252.2,403.4c0-6.7-4.8-12.2-11.6-12.2s-11.4,5.4-11.4,12v0.2
	c0,6.6,4.8,12,11.6,12S252.2,410,252.2,403.4L252.2,403.4z"/>
<path class="st0" d="M264.2,403.4L264.2,403.4c0-9.7,7.2-17.6,17.4-17.6c4.9-0.2,9.7,1.7,13.2,5.3l-3.8,4.4
	c-2.6-2.5-5.6-4.2-9.5-4.2c-6.5,0-11.1,5.3-11.1,12v0.2c0,6.6,4.7,12,11.1,12c4.1,0,6.9-1.6,9.7-4.4l3.8,3.8c-3.5,3.7-7.3,6-13.8,6
	C271.5,420.8,264.2,413,264.2,403.4z"/>
<path class="st0" d="M309.6,391.8h-10.7v-5.6h27.4v5.6h-10.7v28.3h-6L309.6,391.8z"/>
<path class="st0" d="M329.4,403.4L329.4,403.4c0.2-9.8,8.2-17.5,18-17.3c9.4,0.2,17.1,7.7,17.3,17.2v0.1
	c-0.2,9.8-8.3,17.5-18.1,17.2C337.2,420.4,329.6,412.8,329.4,403.4z M358.6,403.4L358.6,403.4c0-6.7-4.8-12.2-11.6-12.2
	s-11.4,5.4-11.4,12v0.2c0,6.6,4.8,12,11.6,12S358.6,410,358.6,403.4z"/>
<path class="st0" d="M371.9,386.4h15.2c3.8,0,6.9,1,8.8,2.9c1.5,1.5,2.3,3.5,2.3,5.6v0.1c0.1,3.3-1.8,6.2-4.8,7.5
	c4,1.3,6.7,3.7,6.7,8.2v0.1c0,6-5,9.2-12.5,9.2H372v-33.7H371.9z M392.3,395.9c0-2.6-2.2-4.2-6-4.2h-8.5v8.9h8.1
	C389.8,400.6,392.2,399.1,392.3,395.9L392.3,395.9z M387.3,405.7h-9.4v9.2h9.8c4.1,0,6.6-1.6,6.6-4.7v-0.1
	C394.2,407.3,392,405.7,387.3,405.7L387.3,405.7z"/>
<path class="st0" d="M406.9,386.4h25v5.3h-19.2v8.8h17v5.3h-17v9.1h19.3v5.3h-25.3v-33.7H406.9z"/>
<path class="st0" d="M439.3,386.4h15.1c4.2,0,7.6,1.3,9.8,3.4c1.8,2,2.8,4.6,2.8,7.3v0.1c0,5.6-3.4,8.9-8.1,10.3l9.1,12.8h-7
	l-8.4-11.9h-7.5v11.9h-6v-33.9H439.3z M453.9,403.1c4.2,0,7-2.2,7-5.7l0,0c0-3.7-2.6-5.6-7-5.6h-8.7v11.4h8.7V403.1z"/>
<path class="st0" d="M486.5,414.8l4.1-3.8c2.5,2.8,5.1,4.4,8.9,4.4c3.4,0,5.9-2,5.9-5.1v-0.1c0-3.4-3.1-5.3-7.8-5.3h-2.8l-1-3.7
	l9.1-9.7h-14.7v-5.1h22.4v4.4l-9.4,9.7c5.1,0.6,10,3.2,10,9.5v0.1c0,6.3-4.8,10.7-11.9,10.7C494.4,421,489.6,418.8,486.5,414.8z"/>
<path class="st0" d="M516.9,402.6H537v5.6h-20.1V402.6z"/>
<path class="st0" d="M547,392.1l-6.2,1.8l-1.3-4.8l9.1-2.9h4.1v34.1h-5.9v-28.1H547z"/>
<path class="st0" d="M566,392.1l-6.2,1.8l-1.3-4.8l9.1-2.9h4.1v34.1h-5.9v-28.1H566z"/>
</svg>
